<?xml version="1.0" encoding="utf-8"?>
<!-- Generator: Adobe Illustrator 16.0.0, SVG Export Plug-In . SVG Version: 6.00 Build 0)  -->
<!DOCTYPE svg PUBLIC "-//W3C//DTD SVG 1.1//EN" "http://www.w3.org/Graphics/SVG/1.1/DTD/svg11.dtd">
<svg version="1.1" id="Camada_1" xmlns="http://www.w3.org/2000/svg" xmlns:xlink="http://www.w3.org/1999/xlink" x="0px" y="0px"
	 width="859.912px" height="150.486px" viewBox="0 0 859.912 150.486" enable-background="new 0 0 859.912 150.486"
	 xml:space="preserve">
<g>
	<g>
		<path id="SVGID_1_" fill="#FFFFFF" d="M103.976,115.11c0-4.73,3.838-8.568,8.573-8.568c4.73,0,8.568,3.838,8.568,8.568
			c0,4.733-3.838,8.572-8.568,8.572C107.813,123.682,103.976,119.844,103.976,115.11 M55.393,91.657c0-4.736,3.838-8.57,8.57-8.57
			c4.736,0,8.574,3.834,8.574,8.57c0,4.734-3.838,8.572-8.574,8.572C59.23,100.229,55.393,96.391,55.393,91.657 M59.286,47.881
			c-0.328,0.227-0.679,0.452-1.081,0.688C58.524,48.298,58.896,48.078,59.286,47.881 M30.878,43.123c0-4.731,3.836-8.572,8.57-8.572
			c4.733,0,8.572,3.841,8.572,8.572c0,4.736-3.839,8.572-8.572,8.572C34.714,51.696,30.878,47.86,30.878,43.123 M98.225,43.123
			c0-7.91,6.414-14.322,14.324-14.322c7.905,0,14.319,6.412,14.319,14.322c0,7.911-6.414,14.322-14.319,14.322
			C104.639,57.446,98.225,51.034,98.225,43.123 M86.011,37.401c-9.683-0.188-19.367-0.373-29.048-0.561
			c-2.588-7.328-9.571-12.581-17.787-12.581c-10.417,0-18.863,8.445-18.863,18.863s8.446,18.863,18.863,18.863
			c7.862,0,14.598-4.81,17.429-11.647c0.535-0.592,1.069-1.181,1.6-1.771c9.257,0.039,18.512,0.078,27.77,0.119
			c0.655,3.145,1.855,6.087,3.494,8.729c-1.5,2.085-13.327,13.965-17.941,17.152c-2.396-1.104-5.061-1.725-7.878-1.725
			c-10.417,0-18.861,8.445-18.861,18.863s8.444,18.863,18.861,18.863c10.418,0,18.863-8.445,18.863-18.863
			c0-2.721-0.578-5.305-1.616-7.643c1.933-3.271,4.398-6.201,6.772-9.326c3.001-3.305,5.908-6.723,9.659-9.134
			c2.735,1.854,5.827,3.215,9.151,3.977c0.353,1.176,0.459,2.546,0.271,4.17c-0.947,8.224,1.209,16.752-2.127,24.599
			c-6.671,2.901-11.336,9.555-11.336,17.295c0,10.418,8.445,18.862,18.863,18.862s18.863-8.444,18.863-18.862
			c0-7.828-4.771-14.545-11.563-17.396c-1.507-2.772-1.534-5.807-1.471-9.16c0.085-4.961,0.253-9.938-0.047-14.881
			c-0.11-1.771,0.003-3.263,0.426-4.565c12.196-2.664,21.335-13.52,21.335-26.519c0-14.992-12.154-27.146-27.146-27.146
			C99.519,15.977,88.64,25.156,86.011,37.401"/>
	</g>
	<g>
		<defs>
			<path id="SVGID_2_" d="M103.976,115.11c0-4.73,3.838-8.568,8.573-8.568c4.73,0,8.568,3.838,8.568,8.568
				c0,4.733-3.838,8.572-8.568,8.572C107.813,123.682,103.976,119.844,103.976,115.11 M55.393,91.657c0-4.736,3.838-8.57,8.57-8.57
				c4.736,0,8.574,3.834,8.574,8.57c0,4.734-3.838,8.572-8.574,8.572C59.23,100.229,55.393,96.391,55.393,91.657 M59.286,47.881
				c-0.328,0.227-0.679,0.452-1.081,0.688C58.524,48.298,58.896,48.078,59.286,47.881 M30.878,43.123
				c0-4.731,3.836-8.572,8.57-8.572c4.733,0,8.572,3.841,8.572,8.572c0,4.736-3.839,8.572-8.572,8.572
				C34.714,51.696,30.878,47.86,30.878,43.123 M98.225,43.123c0-7.91,6.414-14.322,14.324-14.322
				c7.905,0,14.319,6.412,14.319,14.322c0,7.911-6.414,14.322-14.319,14.322C104.639,57.446,98.225,51.034,98.225,43.123
				 M86.011,37.401c-9.683-0.188-19.367-0.373-29.048-0.561c-2.588-7.328-9.571-12.581-17.787-12.581
				c-10.417,0-18.863,8.445-18.863,18.863s8.446,18.863,18.863,18.863c7.862,0,14.598-4.81,17.429-11.647
				c0.535-0.592,1.069-1.181,1.6-1.771c9.257,0.039,18.512,0.078,27.77,0.119c0.655,3.145,1.855,6.087,3.494,8.729
				c-1.5,2.085-13.327,13.965-17.941,17.152c-2.396-1.104-5.061-1.725-7.878-1.725c-10.417,0-18.861,8.445-18.861,18.863
				s8.444,18.863,18.861,18.863c10.418,0,18.863-8.445,18.863-18.863c0-2.721-0.578-5.305-1.616-7.643
				c1.933-3.271,4.398-6.201,6.772-9.326c3.001-3.305,5.908-6.723,9.659-9.134c2.735,1.854,5.827,3.215,9.151,3.977
				c0.353,1.176,0.459,2.546,0.271,4.17c-0.947,8.224,1.209,16.752-2.127,24.599c-6.671,2.901-11.336,9.555-11.336,17.295
				c0,10.418,8.445,18.862,18.863,18.862s18.863-8.444,18.863-18.862c0-7.828-4.771-14.545-11.563-17.396
				c-1.507-2.772-1.534-5.807-1.471-9.16c0.085-4.961,0.253-9.938-0.047-14.881c-0.11-1.771,0.003-3.263,0.426-4.565
				c12.196-2.664,21.335-13.52,21.335-26.519c0-14.992-12.154-27.146-27.146-27.146C99.519,15.977,88.64,25.156,86.011,37.401"/>
		</defs>
		<clipPath id="SVGID_3_">
			<use xlink:href="#SVGID_2_"  overflow="visible"/>
		</clipPath>
		<rect x="20.313" y="15.977" clip-path="url(#SVGID_3_)" fill="#FFFFFF" width="119.381" height="118.531"/>
	</g>
</g>
<g>
	<g>
		<path fill="#F7F2F2" d="M191.665,110.419l28.602-74.476h10.618l30.481,74.476h-11.228l-8.687-22.557H210.31l-8.179,22.557H191.665
			z M213.154,79.836h25.249L230.63,59.21c-2.371-6.266-4.132-11.413-5.284-15.444c-0.948,4.776-2.286,9.518-4.013,14.225
			L213.154,79.836z"/>
		<path fill="#F7F2F2" d="M298.809,110.419v-6.808c-3.421,5.352-8.451,8.027-15.088,8.027c-4.302,0-8.255-1.187-11.862-3.557
			s-6.401-5.681-8.382-9.932c-1.981-4.25-2.972-9.136-2.972-14.656c0-5.386,0.897-10.271,2.692-14.657
			c1.795-4.386,4.487-7.748,8.078-10.084c3.589-2.337,7.603-3.505,12.04-3.505c3.251,0,6.147,0.686,8.688,2.058
			s4.605,3.159,6.198,5.359V35.943h9.094v74.476H298.809z M269.902,83.494c0,6.909,1.456,12.074,4.369,15.494
			c2.912,3.421,6.35,5.131,10.313,5.131c3.996,0,7.392-1.633,10.186-4.902c2.794-3.268,4.191-8.255,4.191-14.961
			c0-7.383-1.423-12.802-4.268-16.257s-6.35-5.182-10.516-5.182c-4.064,0-7.46,1.66-10.186,4.979
			C271.265,71.115,269.902,76.348,269.902,83.494z"/>
		<path fill="#F7F2F2" d="M317.404,110.419V56.467h8.179v7.57c1.693-2.642,3.945-4.767,6.756-6.376
			c2.811-1.608,6.012-2.413,9.602-2.413c3.996,0,7.272,0.831,9.83,2.489c2.557,1.66,4.36,3.98,5.411,6.96
			c4.267-6.299,9.821-9.449,16.663-9.449c5.351,0,9.466,1.482,12.345,4.445c2.878,2.964,4.318,7.527,4.318,13.691v37.035h-9.094
			V76.432c0-3.658-0.297-6.291-0.889-7.9c-0.593-1.608-1.668-2.903-3.226-3.886c-1.559-0.982-3.387-1.473-5.487-1.473
			c-3.793,0-6.943,1.262-9.449,3.785c-2.507,2.523-3.759,6.563-3.759,12.117v31.345h-9.145V75.365c0-4.064-0.746-7.112-2.235-9.144
			c-1.491-2.032-3.929-3.048-7.315-3.048c-2.574,0-4.953,0.678-7.138,2.032c-2.185,1.355-3.768,3.336-4.75,5.944
			c-0.983,2.608-1.473,6.368-1.473,11.278v27.992H317.404z"/>
		<path fill="#F7F2F2" d="M399.858,46.459V35.943h9.145v10.516H399.858z M399.858,110.419V56.467h9.145v53.952H399.858z"/>
		<path fill="#F7F2F2" d="M418.656,110.419V56.467h8.23v7.671c3.962-5.927,9.686-8.891,17.171-8.891
			c3.251,0,6.239,0.584,8.966,1.753s4.768,2.701,6.122,4.598c1.354,1.897,2.303,4.149,2.845,6.756
			c0.339,1.694,0.509,4.657,0.509,8.891v33.174h-9.145V77.6c0-3.725-0.356-6.511-1.067-8.357c-0.711-1.846-1.974-3.319-3.784-4.42
			c-1.813-1.1-3.938-1.651-6.376-1.651c-3.896,0-7.257,1.237-10.084,3.708c-2.829,2.473-4.242,7.163-4.242,14.073v29.465H418.656z"
			/>
		<path fill="#F7F2F2" d="M467.783,35.943h69.955v18.39h-23.471v56.086h-23.014V54.333h-23.471V35.943z"/>
		<path fill="#F7F2F2" d="M574.876,35.943h23.064v40.462c0,8.495-0.754,14.96-2.261,19.394c-1.507,4.435-4.539,8.19-9.094,11.271
			c-4.556,3.08-10.389,4.62-17.501,4.62c-7.519,0-13.345-1.017-17.476-3.049c-4.133-2.032-7.325-5.004-9.577-8.916
			c-2.252-3.911-3.581-8.745-3.987-14.504l21.997-2.997c0.033,3.285,0.321,5.724,0.863,7.315c0.542,1.593,1.456,2.879,2.744,3.861
			c0.88,0.644,2.134,0.965,3.759,0.965c2.573,0,4.462-0.955,5.665-2.868c1.201-1.911,1.803-5.135,1.803-9.669V35.943z"/>
		<path fill="#F7F2F2" d="M646.458,83.443V67.948h35.562v31.751c-6.808,4.641-12.827,7.799-18.06,9.475
			c-5.233,1.677-11.439,2.516-18.619,2.516c-8.84,0-16.046-1.507-21.617-4.521s-9.89-7.502-12.954-13.463
			c-3.065-5.961-4.598-12.803-4.598-20.524c0-8.128,1.677-15.198,5.029-21.21c3.354-6.011,8.264-10.575,14.732-13.691
			c5.047-2.404,11.837-3.607,20.372-3.607c8.23,0,14.385,0.745,18.467,2.235c4.081,1.491,7.468,3.802,10.16,6.935
			c2.692,3.133,4.716,7.104,6.071,11.913l-22.201,3.962c-0.914-2.811-2.464-4.961-4.648-6.452c-2.185-1.49-4.971-2.235-8.356-2.235
			c-5.047,0-9.068,1.752-12.065,5.258c-2.998,3.505-4.496,9.052-4.496,16.638c0,8.061,1.516,13.818,4.547,17.272
			c3.03,3.455,7.256,5.183,12.675,5.183c2.573,0,5.029-0.373,7.366-1.118c2.337-0.744,5.012-2.015,8.027-3.81v-7.011H646.458z"/>
		<path fill="#F7F2F2" d="M688.524,73.231c0-12.158,3.387-21.624,10.16-28.398c6.773-6.773,16.206-10.16,28.297-10.16
			c12.396,0,21.947,3.328,28.652,9.982c6.706,6.655,10.06,15.978,10.06,27.967c0,8.705-1.466,15.843-4.395,21.413
			c-2.93,5.571-7.163,9.906-12.701,13.006c-5.537,3.099-12.438,4.648-20.701,4.648c-8.4,0-15.352-1.338-20.854-4.014
			c-5.504-2.675-9.966-6.909-13.387-12.701C690.234,89.183,688.524,81.936,688.524,73.231z M711.538,73.333
			c0,7.518,1.396,12.921,4.191,16.206c2.794,3.285,6.595,4.928,11.404,4.928c4.945,0,8.771-1.608,11.481-4.826
			c2.709-3.217,4.064-8.992,4.064-17.323c0-7.011-1.415-12.133-4.242-15.368c-2.828-3.234-6.664-4.852-11.507-4.852
			c-4.641,0-8.365,1.643-11.176,4.928C712.942,60.311,711.538,65.747,711.538,73.333z"/>
	</g>
</g>
</svg>
