<?xml version="1.0" encoding="utf-8"?>
<!-- Generator: Adobe Illustrator 16.0.0, SVG Export Plug-In . SVG Version: 6.00 Build 0)  -->
<!DOCTYPE svg PUBLIC "-//W3C//DTD SVG 1.1//EN" "http://www.w3.org/Graphics/SVG/1.1/DTD/svg11.dtd">
<svg version="1.1" id="Camada_1" xmlns="http://www.w3.org/2000/svg" xmlns:xlink="http://www.w3.org/1999/xlink" x="0px" y="0px"
	 width="154px" height="154.547px" viewBox="0 0 154 154.547" enable-background="new 0 0 154 154.547" xml:space="preserve">
<path fill="#FFFFFF" d="M113.145,129.281l-1.877-0.028c-0.812,0-1.452,0.121-1.991,0.302c1.01-3.187,0.43-5.645,0.132-6.908
	l-0.461-1.922l-0.931,1.74c-0.876,1.617-1.849,2.209-3.79,3.293c-1.62,0.905-2.397,1.657-2.947,2.561
	c-0.345-0.571-0.417-1.178-0.465-1.594l-0.015-0.094c-0.06-0.494-0.171-1.415-1.045-1.415c-0.228,0-0.444,0.075-0.687,0.238
	c-2.21,1.516-3.421,3.119-4.858,5.409c-0.157-0.67-0.278-1.651-0.278-3.087c0-2.148-0.369-3.289-1.126-3.487l-0.601-0.16
	l-0.263,0.546c0,0-0.126,0.248-0.232,0.496c-0.218,0.44-2.214,3.349-3.676,4.322c-0.998,0.667-1.473,1.047-1.873,1.633
	c-0.627-1.475-1.593-2.301-2.842-3.366l-0.799-0.684l-0.467,0.283c-1.234,0.749-2.144,2.372-2.728,3.737
	c-0.274-0.65-0.582-1.382-0.844-2.017l-0.35-0.859l-0.766,0.518c-0.682,0.459-1.05,0.854-1.484,1.616
	c-0.297-1.028-0.455-2.122-0.602-3.144c-0.069-0.509-0.138-0.997-0.221-1.458l-0.207-1.163l-0.968,0.681
	c-1.491,1.056-2.377,2.581-3.522,4.897c-1.527-1.378-2.289-2.644-3.031-4.281l-0.297-0.686l-0.688,0.295
	c-1.195,0.518-2.165,1.553-2.948,3.154c-0.255-0.296-0.587-0.641-1.019-1.024c-0.137-0.12-0.263-0.227-0.382-0.326
	c-0.671-0.574-0.922-0.789-1.276-2.197l-0.258-1.052l-0.898,0.611c-1.839,1.265-2.586,1.911-3.146,3.357
	c-1.007-1.166-2.409-1.981-3.782-2.719c-1.821-0.984-2.657-2.022-3.487-3.178l-0.594-0.835l-0.617,0.818
	c-0.292,0.387-1.154,1.525,0.276,9.249c-0.762-0.564-1.583-1.312-2.489-2.456c-0.624-0.788-1.681-2.095-3.176-3.848l-1.419-1.64
	v2.023c0,0.013,0.003,0.358,0.047,0.692c0.022,0.127,0.053,0.353,0.091,0.658c0.156,1.232,0.468,3.684,1.025,6.256
	c-0.88-0.013-1.846,0.2-1.845,0.2l-1.318,0.269l8.12,8.662c0.003,0.067,0.004,0.132,0.004,0.196c0,0.593,0.135,1.176,0.4,1.742h-0.4
	v4.834h5.103l6.105,5.607h36.853l6.104-5.607h5.104v-4.552c0.772-0.882,1.743-2.091,2.163-3.042c0.49-1.113,0.507-1.135,0.953-1.714
	l0.067-0.089c0.159-0.208,0.365-0.479,0.645-0.869c1.578-2.269,1.944-4.139,1.982-4.357l0.243-1.547l-1.37,0.78
	c-0.041,0.022-0.321,0.161-1.503,0.661c-0.009,0.003-0.018,0.006-0.028,0.009c0.533-1.93,1.297-2.705,2.041-3.461L113.145,129.281z
	 M42.861,134.136l0.798,0.158l-0.184-0.792c-0.644-2.768-0.995-5.527-1.164-6.852c-0.014-0.11-0.028-0.211-0.039-0.301
	c1.211,1.432,2.086,2.515,2.629,3.2c1.43,1.807,2.667,2.698,3.791,3.391l1.027,0.634l-0.235-1.184
	c-1.214-6.108-1.096-8.391-0.881-9.234c0.8,1.07,1.752,2.107,3.534,3.069c1.562,0.839,3.159,1.777,4.008,3.202l0.623,1.047
	l0.334-1.172c0.492-1.725,0.85-2.231,2.708-3.532c0.379,1.321,0.76,1.693,1.519,2.342c0.11,0.091,0.228,0.192,0.354,0.303
	c0.817,0.724,1.219,1.279,1.386,1.545l0.546,0.874l0.386-0.956c0.675-1.668,1.493-2.748,2.496-3.289
	c0.831,1.78,1.778,3.232,3.7,4.826l0.515,0.427l0.293-0.601c1.11-2.277,1.908-3.802,3.1-4.813c0.047,0.304,0.091,0.626,0.14,0.979
	c0.205,1.42,0.437,3.03,1.067,4.473l0.455,1.046l0.499-1.025c0.611-1.255,0.874-1.676,1.386-2.075
	c0.425,1.023,0.923,2.199,1.215,2.877l0.538,1.249l0.443-1.286c0.343-0.996,1.26-3.342,2.574-4.29l0.217,0.186
	c1.448,1.236,2.405,2.053,2.892,4.004l0.356,1.421l0.63-1.322c0.545-1.145,0.715-1.371,2.101-2.297
	c1.654-1.101,3.732-4.145,4.037-4.738c0.108,0.334,0.225,0.969,0.225,2.146c0,2.042,0.227,3.49,0.687,4.43l-0.359,0.579
	c-0.242,0.39-0.688,0.836-1.329,1.323c-2.034,1.552-2.31,2.074-3.227,3.812c-0.013,0.025-0.026,0.05-0.04,0.076
	c-0.282-1.536-0.682-2.081-1.615-2.841l-0.613-0.499l-0.224,0.758c-0.352,1.192-1.55,2.18-2.822,3.228l-0.176,0.146
	c-0.303-1.493-0.976-2.531-2.352-3.687l-0.564-0.474l-0.265,0.688c-0.582,1.513-1.349,1.849-3.041,2.59
	c-0.166,0.072-0.34,0.148-0.523,0.23c-0.413-2.299-2.011-4.088-2.569-4.555l-0.69-0.578l-0.165,0.885
	c-0.09,0.489-0.472,1.727-2.068,2.68c-1.9,1.131-2.726,2.408-3.274,3.945c-1.351-1.336-1.348-2.338-1.346-3.582
	c0.004-0.188,0.004-0.379-0.003-0.572l-0.019-0.589l-0.583,0.085c-1.745,0.254-3.462,2.223-4.111,3.044
	c-0.7-0.709-1.317-1.85-1.68-3.122l-0.27-0.95l-0.637,0.756c-0.174,0.206-0.384,0.413-0.542,0.563
	c-0.336-0.455-1.064-1.318-2.272-2.153l-1.159-0.801l0.35,1.365c0.421,1.637-0.224,2.858-0.61,3.592
	c-0.077,0.145-0.142,0.271-0.184,0.368c-0.155,0.344-0.231,0.879-0.268,1.362c-0.345-0.553-0.872-1.31-1.639-2.24
	c-1.266-1.531-2.718-2.2-3.471-2.464l-0.779-0.273l0.252,2.501c-0.09,0.015-0.266,0.028-0.597,0.014
	c-0.347-0.014-0.746-0.134-1.186-0.358l-1.28-0.649l0.557,1.322c0.258,0.613,0.634,1.62,0.84,2.649l-5.815-6.203
	C41.693,134.106,42.446,134.055,42.861,134.136 M48.267,141.716l-0.054-0.057c-0.007-1.094-0.326-2.3-0.655-3.252
	c0.166,0.033,0.326,0.054,0.483,0.06c0.611,0.025,1.235,0.013,1.57-0.493l0.155-0.284l-0.119-1.179
	c0.633,0.328,1.469,0.888,2.219,1.797c1.488,1.8,1.964,2.835,2.006,2.932l1.199,2.872h-6.203c-0.366-0.571-0.562-1.157-0.562-1.747
	c0-0.153-0.005-0.312-0.022-0.471L48.267,141.716z M101.009,147.889l-6.104,5.607H58.871l-6.105-5.607h-4.46v-2.73h0.27v0.005
	h56.895v2.725H101.009z M110.058,135.202l0.037-0.014c0.473-0.2,0.81-0.345,1.054-0.453c-0.206,0.693-0.672,1.916-1.658,3.334
	c-0.267,0.373-0.467,0.636-0.621,0.838l-0.074,0.096c-0.486,0.632-0.547,0.725-1.072,1.919c-0.326,0.739-1.188,1.896-2.367,3.19
	H55.409l-0.074-3.166c-0.012-0.611,0.045-1.635,0.211-2.004c0.036-0.082,0.089-0.182,0.155-0.307
	c0.326-0.618,0.867-1.644,0.868-3.002c0.812,0.734,1.187,1.337,1.194,1.348l0.468,0.765l0.676-0.587
	c0.01-0.008,0.12-0.104,0.274-0.248c0.346,0.91,0.962,2.151,1.95,2.998l0.628,0.543l0.484-0.679c0.618-0.833,1.853-2.194,3.01-2.699
	c0,1.365,0.065,2.784,2.024,4.529l0.868,0.782l0.36-1.116c0.505-1.591,1.151-2.723,2.958-3.799c1.309-0.781,1.961-1.747,2.284-2.491
	c0.673,0.806,1.51,2.168,1.684,3.67l0.122,1.031l0.947-0.429c0.309-0.141,0.595-0.267,0.874-0.388
	c1.545-0.677,2.557-1.121,3.281-2.489c0.956,0.922,1.369,1.765,1.554,3.073l0.194,1.349l1.047-0.877
	c0.126-0.108,0.254-0.214,0.379-0.318l0.181-0.15c1.157-0.953,2.26-1.863,2.857-3c0.431,0.465,0.635,1.029,0.839,2.559l0.309,2.325
	l1.107-2.064c0.175-0.32,0.328-0.606,0.465-0.869c0.872-1.654,1.08-2.047,2.93-3.458c0.341-0.259,0.635-0.51,0.883-0.753
	c0.116,0.482,0.195,0.86,0.233,1.117c0.078,0.511,0.314,0.963,0.585,1.483c0.354,0.668,0.72,1.358,0.802,2.37l0.112,1.444
	l1.124-0.915c0.248-0.203,0.482-0.387,0.71-0.564c1.219-0.958,2.226-1.749,2.909-3.629c0.475,1.143,0.798,2.374,0.996,3.788
	l0.312,2.267l1.106-2.009c0.425-0.787,0.906-1.579,1.334-2.282c0.716-1.187,1.403-2.323,1.835-3.363
	c0.363,0.579,0.549,1.374,0.444,3.536l-0.114,2.048l1.415-1.482c0.698-0.729,1.146-1.273,1.442-1.632
	c0.182-0.221,0.295-0.42,0.384-0.58c0.083-0.147,0.133-0.223,0.194-0.28C109.46,135.414,109.724,135.314,110.058,135.202
	 M108.465,134.772c-0.159,0.161-0.261,0.338-0.352,0.499c-0.08,0.143-0.155,0.276-0.279,0.426c-0.202,0.244-0.476,0.578-0.855,0.998
	c0.042-2.477-0.395-3.136-1.119-4.006c-0.056-0.072-0.116-0.145-0.18-0.222l-0.66-0.788l-0.253,0.996
	c-0.287,1.133-1.141,2.545-2.046,4.043c-0.299,0.492-0.625,1.031-0.943,1.583c-0.31-1.693-0.815-3.15-1.564-4.528l-0.667-1.229
	l-0.308,1.364c-0.573,2.543-1.507,3.278-2.92,4.388c-0.105,0.081-0.211,0.164-0.319,0.249c-0.167-0.954-0.545-1.666-0.871-2.283
	c-0.217-0.416-0.404-0.775-0.456-1.112c-0.084-0.564-0.321-1.512-0.507-2.212l0.364-0.595c1.642-2.683,2.807-4.427,5.127-6.02
	c0.01-0.007,0.019-0.012,0.028-0.017c0.031,0.124,0.056,0.324,0.073,0.467l0.015,0.092c0.069,0.59,0.212,1.817,1.244,2.779
	l0.526,0.49l0.308-0.65c0.521-1.102,1.087-1.802,2.888-2.809c1.753-0.978,2.879-1.655,3.811-3.056
	c0.307,1.49,0.559,3.81-0.695,6.747l-0.626,1.465l1.375-0.805c0.501-0.293,1.107-0.603,2.061-0.695
	C109.878,131.156,108.994,132.289,108.465,134.772"/>
<path fill="#FFFFFF" d="M133.86,62.786c-0.826-1.091-2.308-1.239-4.413-0.442c0.237-0.703,0.447-1.33,0.634-1.894
	c1.028-3.104,1.412-4.266,2.387-5.54l-0.502-0.427l-0.211-0.328c-2.341,1.495-3.571,2.279-4.537,5.849
	c-0.051-0.517-0.097-1.001-0.139-1.457c-0.452-4.746-0.589-6.177-3.063-9.895l-1.376-2.067l0.42,2.447
	c0.725,4.227,1.049,7.908,0.963,10.968c-1.555-3.261-2.449-4.907-4.596-6.685l-1.897-1.569l1.09,2.207
	c2.689,5.449,3.079,6.359,4.37,10.431c-0.949-0.946-1.948-1.725-3.079-1.725c-1.109,0-2.21,0.76-3.362,2.321l-0.913,1.236
	l1.478-0.418c0.597-0.168,1.097-0.25,1.532-0.25c1.555,0,3.149,0.905,3.426,7.24c-0.867-1.67-1.977-2.069-2.838-2.069
	c-1.084,0-2.311,0.623-3.645,1.852l-0.747,0.687c0.387-2.616,0.195-5.389-0.786-8.352c-4.285-12.938-11.273-16.669-16.381-17.521
	c-0.41-0.067-0.868-0.101-1.36-0.101c-2.391,0-5.327,0.763-6.708,1.142v-2.853c1.599,0.581,3.785,1.162,6.135,1.162
	c3.125,0,5.668-1.024,7.562-3.041c0.098-0.105,0.149-0.245,0.142-0.387c-0.007-0.143-0.073-0.277-0.18-0.37
	c-0.848-0.736-1.82-1.483-2.951-2.051c3.391-0.565,6.355-2.361,7.609-4.752c0.13-0.246,0.045-0.55-0.193-0.694l-0.28-0.171
	c-0.403-0.247-0.82-0.502-1.267-0.705c-0.002-0.001-0.004-0.001-0.005-0.002c-0.128-0.056-0.247-0.107-0.366-0.156
	c2.666-0.766,4.857-2.761,6.531-5.968l0.061-0.116c0.076-0.143,0.081-0.312,0.016-0.459s-0.195-0.256-0.351-0.296
	c-1.336-0.34-2.824-0.688-4.218-0.777c1.979-2.529,1.648-6.04,1.596-6.478c-0.027-0.234-0.207-0.422-0.439-0.458
	c-1.312-0.208-3.172,0.07-4.524,0.673c-0.511,0.226-1.281,0.79-1.863,1.246c-0.313-1.812-1.017-3.244-1.453-3.993
	c-0.083-0.142-0.226-0.237-0.39-0.258c-0.163-0.021-0.325,0.037-0.44,0.154c-0.348,0.353-0.759,0.699-1.194,1.066
	c-0.512,0.431-1.027,0.876-1.487,1.362c0.032-0.803-0.006-1.645-0.119-2.509c-0.017-0.138-0.091-0.263-0.201-0.348
	c-0.11-0.085-0.25-0.122-0.389-0.105c-2.003,0.264-4.642,0.88-6.469,2.284c-0.489-1.37-1.325-2.626-2.474-3.73
	c1.931-2.903,3.599-4.731,5.085-5.556c0.219-0.121,0.322-0.381,0.245-0.619c-0.075-0.24-0.311-0.392-0.559-0.363
	c-2.765,0.309-5.411,1.922-7.863,4.794c-0.8,0.731-1.621,1.789-2.351,2.867c2.446-6.552,7.503-11.817,8.69-12.994
	c0.175-0.174,0.206-0.446,0.073-0.655c-0.132-0.208-0.391-0.297-0.624-0.212c-6.189,2.263-9.697,7.579-11.454,11.233
	c0.97-6.391,2.912-9.407,4.91-11.859c0.396-0.483,0.805-0.982,1.174-1.501c0.138-0.193,0.129-0.454-0.02-0.637
	c-0.15-0.184-0.403-0.245-0.62-0.149c-7.161,3.156-10.029,10.343-11.156,16.277C69.104,6.233,63.992,3.507,59.117,1.609
	c-0.241-0.094-0.513,0.001-0.644,0.224c-0.131,0.223-0.08,0.508,0.12,0.672c3.984,3.267,7.935,10.553,10.236,15.309
	c-2.248-2.221-4.236-3.337-4.407-3.431c-1.878-1.031-6.45-2.118-10.724-0.647c-1.702,0.585-3.827,2.06-4.738,4.038
	c-0.092,0.202-0.048,0.44,0.11,0.595c0.159,0.156,0.397,0.195,0.597,0.099c4.094-1.979,7.794-2.355,11.001-1.116
	c3.046,1.176,5.018,3.542,6.129,5.291c-4.011-2.631-8.007-2.32-9.593-2.196c-3.761,0.219-9.036,2.477-11.838,6.368
	c-0.151,0.21-0.128,0.497,0.055,0.679c0.184,0.183,0.471,0.206,0.681,0.054c1.299-0.941,8.134-5.459,14.968-1.972
	c2.528,1.289,4.659,3.025,6.386,4.772c-2.964-1.932-5.888-2.554-8.203-2.643c-5.802-0.201-10.282,2.714-11.875,4.731
	c-1.123,1.421-2.004,3.293-2.619,5.564c-0.065,0.236,0.043,0.485,0.259,0.601c0.215,0.115,0.481,0.067,0.643-0.116
	c4.026-4.577,8.275-6.757,12.629-6.482c2.879,0.184,5.548,1.541,7.808,3.234c-1.992-0.96-3.96-1.374-5.773-1.178
	c-7.221,0.417-9.458,5.767-10.084,8.05c-0.066,0.239,0.044,0.492,0.265,0.606c0.221,0.114,0.49,0.059,0.648-0.133
	c1.153-1.404,4.235-4.676,7.941-4.733c2.85-0.041,6.144,1.063,8.442,3.208c-2.332-1.591-5.084-2.327-7.522-1.84
	c-2.773,0.55-4.707,2.638-5.448,5.878c-0.054,0.236,0.06,0.478,0.276,0.586c0.075,0.038,0.156,0.057,0.236,0.057
	c0.151,0,0.297-0.064,0.401-0.185c2.578-3.018,5.271-2.769,6.96-2.136c-0.001,0.006-0.005,0.011-0.005,0.018v4.069
	c-0.024-0.007-0.048-0.014-0.072-0.021c-0.906-0.259-1.933-0.552-3.12-0.558c-7.225,0.095-13.69,3.7-17.734,9.889
	c-0.617,0.939-1.978,3.94-2.217,5.011c-0.577,2.582-1.171,6.455-1.098,7.885c1.034,20.106,17.285,31.621,29.154,40.03l0.366,0.261
	c1.146,0.813,2.368,1.512,3.633,2.077c2.977,1.336,6.53,1.944,8.57,1.944c0.224,0,0.427-0.008,0.606-0.021
	c2.609-0.184,6.079-1.505,7.795-6.76c1.157-3.708,5.672-7.754,10.454-12.038c6.936-6.214,14.568-13.056,16.013-21.578l1.222-0.146
	c0.148-0.017,0.311-0.03,0.478-0.03c0.467,0,1.107,0.105,1.498,0.606c0.933,1.194,1.85,2.99,0.846,6.388
	c-1.769-2.163-4.216-1.723-6.353,1.138l-1.195,1.597l1.827-0.801c0.815-0.358,1.55-0.547,2.127-0.547
	c0.705,0,1.143,0.284,1.34,0.867c0.592,1.748,0.639,3.788,0.474,4.979c-0.611-1.134-1.788-2.332-3.429-2.332
	c-1.336,0-2.694,0.785-4.036,2.332l-1.178,1.358l1.723-0.509c0.671-0.198,1.283-0.298,1.82-0.298c0.899,0,1.502,0.27,1.844,0.824
	c0.483,0.785,0.635,2.512-1.005,6.308c0.171-1.772-0.096-3.15-0.797-4.045c-0.779-1.001-1.909-1.212-2.72-1.212
	c-2.131,0-4.302,1.333-4.994,2.577l-0.684,1.235l1.325-0.486c0.451-0.165,1.333-0.441,2.178-0.441c0.837,0,1.413,0.255,1.763,0.783
	c0.477,0.718,0.72,2.3-0.542,5.786c-0.079-1.464-0.474-2.614-1.169-3.378c-0.648-0.708-1.539-1.081-2.579-1.081
	c-1.683,0-3.643,1.02-4.877,2.54l-1.069,1.316l1.626-0.479c0.647-0.191,1.611-0.419,2.534-0.419c1.04,0,1.747,0.292,2.1,0.868
	c0.403,0.66,0.555,2.072-0.861,5.08c-0.845-2.822-2.538-3.443-3.866-3.443c-1.584,0-3.187,0.867-4.002,1.385l-1.655,1.049
	l1.958-0.08c0.069-0.003,0.144-0.004,0.221-0.004c1.172,0,2.726,0.221,3.476,1.274c0.478,0.668,0.565,1.61,0.263,2.808
	c-0.903-1.631-1.711-2.367-3.38-2.367c-0.213,0-0.447,0.012-0.719,0.033l-1.346,0.104l1.061,0.833
	c0.775,0.609,1.221,1.319,1.292,2.054c0.061,0.644-0.176,1.288-0.69,1.885c-0.609-1.403-1.632-2.169-2.921-2.169
	c-0.725,0-1.532,0.251-2.275,0.706l-1.124,0.688l1.289,0.274c0.71,0.151,1.529,0.714,1.672,1.394
	c0.164,0.801-0.671,1.643-2.352,2.369c-1.418,0.61-2.375,1.046-3.169,1.408c-1.985,0.901-2.807,1.275-7.089,2.702
	c-1.534,0.511-2.959,1.025-4.262,1.526c-2.402-0.982-5.764-2.136-8.205-2.629c-0.211-1.197-1.555-6.885-8.178-8.301
	c-0.153-0.034-0.311,0.004-0.433,0.099c-0.123,0.096-0.197,0.241-0.203,0.395l-0.005,0.129c-0.184-0.356-0.385-0.704-0.616-1.037
	c-2.436-3.515-6.776-4.654-8.047-4.919c-0.013-0.003-0.025,0.002-0.038,0c-0.15-0.496-0.334-0.978-0.582-1.435
	c-1.756-3.227-5.531-4.542-6.921-4.93c0.275-1.887,0.054-3.764-0.681-5.611c-1.228-3.097-3.965-4.774-5.333-5.447
	c0.769-1.511,1.078-3.062,0.899-4.633c-0.293-2.565-1.796-4.636-2.994-5.912c1.833-2.867,1.052-5.988,0.131-8.015
	c-0.104-2.647-0.69-4.59-1.795-5.932c-0.151-0.184-0.407-0.244-0.625-0.143c-0.69,0.316-1.404,0.876-2.132,1.665
	c0.382-1.265,1.056-2.841,2.215-4.07c0.068,0.071,0.136,0.137,0.21,0.191c0.291,0.216,0.623,0.304,0.969,0.304
	c1.553,0,3.425-1.767,3.502-1.842c0.072-0.061,0.17-0.138,0.277-0.221c0.12-0.094,0.251-0.197,0.374-0.298
	c0.196-0.163,0.332-0.292,0.426-0.404c0.179-0.212,0.162-0.527-0.039-0.719c-0.17-0.163-0.425-0.189-0.622-0.077
	c-0.051,0.025-0.197,0.091-0.391,0.168c-0.902,0.362-1.316,0.378-1.354,0.379c-0.075-0.057-0.095-0.106-0.101-0.162
	c-0.026-0.245,0.22-0.66,0.392-0.862c0.115-0.132,0.157-0.312,0.111-0.481c-0.046-0.169-0.172-0.304-0.338-0.361
	c-0.281-0.095-0.474,0.056-0.643,0.189c-0.709,0.558-0.907,0.521-0.899,0.551c-0.04-0.083-0.024-0.31,0.045-0.676
	c0.031-0.156,0.048-0.251,0.032-0.365c-0.024-0.151-0.11-0.284-0.239-0.366c-0.129-0.082-0.286-0.104-0.432-0.06
	c-0.233,0.07-0.491,0.238-0.791,0.514c-1.209,1.112-1.56,2.367-1.041,3.665c-1.096,1.077-1.825,2.405-2.303,3.624
	c0.052-2.507,0.379-4.538,0.52-5.307c1.849-0.21,2.49-3.75,2.51-3.876c0.023-0.094,0.056-0.214,0.092-0.345
	c0.041-0.147,0.084-0.306,0.122-0.459c0.062-0.249,0.095-0.433,0.104-0.579c0.016-0.275-0.181-0.517-0.454-0.554
	c-0.237-0.035-0.457,0.097-0.551,0.306c-0.026,0.05-0.105,0.191-0.215,0.369c-0.51,0.827-0.834,1.087-0.862,1.11
	c-0.096-0.001-0.141-0.029-0.179-0.071c-0.166-0.181-0.215-0.66-0.196-0.925c0.013-0.174-0.06-0.343-0.197-0.452
	c-0.136-0.109-0.318-0.144-0.484-0.091c-0.286,0.089-0.351,0.327-0.408,0.537c-0.239,0.868-0.42,0.957-0.395,0.977
	c-0.081-0.044-0.204-0.236-0.365-0.571c-0.069-0.144-0.111-0.23-0.192-0.312c-0.108-0.108-0.255-0.167-0.41-0.153
	c-0.152,0.01-0.292,0.087-0.382,0.209c-0.147,0.195-0.255,0.483-0.331,0.884c-0.345,1.789,0.268,3.086,1.761,3.783
	c-0.15,0.8-0.496,2.911-0.543,5.549c-0.538-0.952-1.104-1.728-1.327-2.021c0.816-1.476-0.81-4.183-0.873-4.285
	c-0.046-0.085-0.099-0.197-0.159-0.321c-0.066-0.136-0.139-0.285-0.211-0.424c-0.117-0.227-0.215-0.387-0.305-0.504
	c-0.17-0.219-0.48-0.269-0.71-0.113c-0.196,0.132-0.275,0.375-0.208,0.592c0.014,0.055,0.047,0.211,0.082,0.417
	c0.162,0.957,0.09,1.367,0.083,1.404c-0.072,0.061-0.123,0.069-0.18,0.064c-0.244-0.027-0.598-0.355-0.758-0.566
	c-0.105-0.14-0.275-0.221-0.447-0.211c-0.175,0.009-0.334,0.104-0.424,0.254c-0.154,0.255-0.047,0.475,0.049,0.67
	c0.394,0.811,0.329,1.006,0.347,0.995c-0.088,0.02-0.308-0.043-0.65-0.188c-0.148-0.063-0.236-0.1-0.352-0.108
	c-0.153-0.012-0.3,0.047-0.408,0.155c-0.106,0.108-0.161,0.258-0.149,0.41c0.017,0.243,0.128,0.531,0.334,0.882
	c0.717,1.223,1.67,1.847,2.803,1.847c0.392,0,0.804-0.074,1.237-0.224c0.038-0.015,0.07-0.034,0.106-0.05
	c0.327,0.438,1.208,1.674,1.759,2.946c-2.007-1.699-4.277-2.514-4.438-2.569c-0.133-0.047-0.278-0.037-0.405,0.025
	c-0.126,0.062-0.221,0.171-0.266,0.304c-1.111,3.301-1.094,5.805,0.075,7.735c-0.826-0.191-1.539-0.304-2.027-0.378
	c-0.196-0.03-0.353-0.054-0.461-0.076c-0.154-0.03-0.311,0.008-0.432,0.105c-0.121,0.097-0.193,0.242-0.197,0.398
	c-0.074,2.93,0.811,5.416,2.629,7.391c0.96,1.048,2.178,1.912,3.533,2.544c-1.802-0.163-3.412,0.033-4.367,0.151
	c-0.158,0.019-0.297,0.107-0.381,0.241c-0.084,0.133-0.105,0.297-0.055,0.447c2.313,6.945,6.185,8.523,12.394,8.523
	c0.237,0,0.486-0.007,0.73-0.011c-0.728,1.948-0.848,3.922-0.324,5.805c0.735,2.659,3.123,5.141,6.721,6.99
	c0.043,0.022,0.091,0.024,0.139,0.033c-0.021,0.892,0.077,1.773,0.276,2.625c-2.025-3.014-6.994-7.549-8.41-8.817
	c1.058-1.535-1.201-4.34-1.282-4.439c-0.057-0.078-0.125-0.182-0.2-0.295c-0.085-0.127-0.177-0.265-0.268-0.394
	c-0.15-0.212-0.264-0.354-0.37-0.457c-0.197-0.193-0.51-0.202-0.716-0.019c-0.177,0.157-0.226,0.41-0.128,0.617
	c0.02,0.051,0.075,0.203,0.137,0.403c0.291,0.927,0.276,1.342,0.275,1.379c-0.064,0.072-0.115,0.087-0.171,0.089
	c-0.249-0.009-0.641-0.27-0.828-0.458c-0.123-0.124-0.3-0.18-0.472-0.147c-0.172,0.032-0.316,0.148-0.386,0.309
	c-0.117,0.273,0.019,0.477,0.14,0.657c0.502,0.751,0.454,0.943,0.479,0.938c-0.085,0.031-0.311,0-0.67-0.098
	c-0.154-0.042-0.247-0.067-0.362-0.059c-0.152,0.011-0.292,0.087-0.384,0.209c-0.091,0.122-0.125,0.278-0.092,0.427
	c0.051,0.238,0.199,0.509,0.452,0.829c0.77,0.98,1.661,1.475,2.628,1.475c0.44,0,0.898-0.109,1.367-0.316
	c0.665,0.594,2.737,2.468,4.744,4.517c-4.125-2.964-7.833-4.285-8.897-4.626c-0.036-1.709-2.918-3.162-3.028-3.214
	c-0.083-0.048-0.187-0.114-0.303-0.185c-0.129-0.081-0.27-0.169-0.407-0.249c-0.221-0.129-0.388-0.213-0.526-0.263
	c-0.26-0.095-0.55,0.028-0.661,0.282c-0.096,0.216-0.035,0.464,0.139,0.611c0.04,0.039,0.153,0.155,0.292,0.31
	c0.648,0.724,0.805,1.108,0.82,1.143c-0.029,0.091-0.069,0.126-0.119,0.151c-0.221,0.108-0.695,0.019-0.943-0.074
	c-0.163-0.062-0.348-0.04-0.49,0.06c-0.144,0.1-0.228,0.265-0.224,0.44c0.005,0.298,0.214,0.427,0.398,0.542
	c0.763,0.472,0.797,0.678,0.826,0.655c-0.066,0.065-0.284,0.129-0.651,0.188c-0.158,0.026-0.253,0.041-0.355,0.096
	c-0.134,0.073-0.229,0.2-0.263,0.349c-0.032,0.149,0.001,0.304,0.092,0.427c0.146,0.195,0.392,0.382,0.754,0.568
	c0.65,0.337,1.27,0.505,1.848,0.505c0.927,0,1.751-0.431,2.434-1.288c0.015-0.018,0.023-0.036,0.035-0.054
	c1.16,0.378,6.171,2.183,11.08,6.44c-3.02-1.156-6.77-1.975-8.001-2.229c-0.006-0.066-0.012-0.133-0.019-0.209
	c-0.179-1.973-3.989-2.308-4.121-2.318c-0.095-0.014-0.218-0.036-0.353-0.061c-0.149-0.026-0.311-0.056-0.466-0.08
	c-0.253-0.038-0.437-0.057-0.588-0.05c-0.28,0.008-0.503,0.234-0.51,0.513c-0.006,0.235,0.144,0.439,0.357,0.511
	c0.054,0.022,0.2,0.086,0.384,0.179c0.869,0.434,1.157,0.733,1.184,0.76c0.007,0.095-0.017,0.142-0.055,0.183
	c-0.166,0.182-0.639,0.275-0.904,0.279c-0.175,0.002-0.337,0.091-0.433,0.237c-0.097,0.146-0.113,0.33-0.046,0.492
	c0.115,0.275,0.357,0.318,0.571,0.356c0.887,0.16,0.992,0.334,1.008,0.306c-0.036,0.085-0.216,0.224-0.536,0.415
	c-0.137,0.082-0.219,0.131-0.293,0.219c-0.097,0.117-0.14,0.271-0.115,0.422c0.023,0.15,0.112,0.282,0.242,0.362
	c0.207,0.128,0.505,0.21,0.91,0.25c0.335,0.034,0.677,0.061,1.013,0.061c1.169,0,2.264-0.325,2.739-1.758
	c1.086,0.23,3.548,0.782,5.911,1.535c-1.385-0.114-2.748-0.028-3.979,0.157c-1.439,0.216-2.595,0.56-3.156,0.746
	c-0.16,0.052-0.284,0.177-0.335,0.336c-0.052,0.159-0.025,0.334,0.073,0.469c2.183,3.038,4.596,5.162,8.568,5.507
	c-1.048,0.465-1.834,0.922-2.219,1.163c-0.155,0.096-0.248,0.264-0.248,0.446s0.094,0.351,0.249,0.446
	c0.336,0.209,0.673,0.431,1.005,0.647l0.199,0.131c1.951,1.283,4.1,2.698,7.116,2.698c0.932,0,1.948-0.136,3.066-0.452
	c1.504-0.425,3.157-1.18,4.913-2.222c0.783,0.938,1.818,1.761,3.168,2.475c-2.991,0.086-5.849,0.994-7.715,2.485
	c-0.203,0.162-0.256,0.449-0.126,0.674c1.425,2.466,6.638,4.55,11.383,4.55c3.151,0,5.669-0.889,7.101-2.504
	c0.878-0.444,3.2-0.478,6.036,0.639c-1.352,0.625-2.388,1.176-3.036,1.598l-0.239,0.155v4.758l0.835-0.607
	c0.773-0.561,3.25-2.291,6.7-4.086c2.437,1.251,5.205,2.908,6.815,4.085l0.836,0.612v-4.381l-0.245-0.155
	c-0.274-0.174-1.797-1.101-3.48-2.014c2.46-1.038,5.188-1.959,8.028-2.513c4.113-0.807,6.605-0.51,7.015,0.837
	c0.226,0.754-0.209,1.704-0.693,2.342l-1.21,1.595l1.838-0.795c1.677-0.725,3.719-1.947,3.927-3.646
	c0.14-1.131-0.567-2.261-2.104-3.365c2.29-0.19,4.856,0,5.661,1.608c0.413,0.828,0.257,1.788,0.054,2.447l-0.622,2.025l1.497-1.499
	c1.22-1.22,2.582-3.027,2.141-4.703c-0.328-1.238-1.583-2.17-3.736-2.776c3.186-0.689,5.308-0.408,6.17,0.825
	c0.513,0.736,0.501,1.678,0.402,2.34l-0.28,1.842l1.202-1.425c0.922-1.096,2.386-3.206,1.811-5.02
	c-0.389-1.238-1.637-2.102-3.712-2.576c0.356-0.175,0.707-0.351,1.052-0.525l0.081-0.041c1.599-0.797,3.108-1.551,4.338-1.93
	c1.234-0.38,2.268-0.135,2.835,0.673c0.687,0.979,0.713,2.713,0.073,4.883l-0.617,2.093l1.503-1.582
	c2.768-2.915,3.779-5.35,3.006-7.238c-0.789-1.932-3.251-2.587-5.254-2.563c4.512-2.185,7.465-2.557,8.579-1.065
	c0.645,0.863,0.731,2.329,0.257,4.357l-0.551,2.354l1.479-1.912c0.557-0.72,3.281-4.442,2.225-6.999
	c-0.834-2.016-3.693-2.721-8.501-2.095c1.292-1.355,3.788-3.544,5.726-3.544c1.002,0,1.738,0.588,2.249,1.798l0.51,1.209
	l0.465-1.226c0.589-1.549,0.611-2.761,0.064-3.603c-0.909-1.401-3.436-1.467-6.581-0.226c1.288-1.514,3.946-3.847,6.175-3.606
	c2.25,0.413,2.825,2.365,2.966,3.185l0.265,1.517l0.719-1.361c0.321-0.608,1.003-2.191,0.418-3.726
	c-0.333-1.11-1.541-2.99-3.957-2.99c-1.494,0-3.248,0.713-5.226,2.122c1.162-2.384,3.227-5.444,5.415-5.444
	c1.098,0,2.184,0.766,3.228,2.277l0.937,1.357l0.021-1.649c0.017-1.369-0.174-3.231-1.184-4.32
	c-1.246-1.347-3.291-1.103-6.085,0.726c0.41-2.592,2.8-5.127,4.989-5.127c1.389,0,2.559,0.999,3.384,2.889l0.836,1.914l0.171-2.081
	c0.114-1.394,0.131-3.939-1.04-5.33c-1.132-1.331-3.002-1.297-5.565,0.1c0.836-3.339,2.306-5.383,3.903-5.383
	c0.932,0,1.818,0.752,2.372,2.012l0.667,1.52l0.33-1.627C134.546,66.327,134.821,64.069,133.86,62.786 M67.561,62.992
	c0,0-0.023-0.007-0.066-0.046c-0.375-0.33-0.813-0.463-1.238-0.594c-0.213-0.065-0.417-0.131-0.571-0.224
	c-0.166-0.104-0.39-0.222-0.663-0.219c-0.239,0.004-0.551,0.1-0.78,0.541c-0.394,0.156-0.652,0.497-0.765,1.019
	c-0.006,0.03-0.033,0.085-0.077,0.162c-0.494,0.859-0.435,1.757-0.305,2.561c0.035,0.215,0.078,0.477,0.212,0.731
	c-0.031,0.011-0.059,0.022-0.086,0.034c-0.037-0.214-0.135-0.374-0.259-0.487c-0.006-0.233-0.02-0.47-0.034-0.702l-0.012-0.2
	c-0.03-0.464-0.063-0.99-0.049-1.523v-0.596l-0.588-0.012c0.026-0.611,0.011-1.661-0.076-2.048c-0.019-0.153-0.002-1.027,0.02-1.473
	c0.025-0.495,0.089-1.139,0.361-1.725c0.034-0.075,0.131-0.245,0.257-0.237c0.188,0.015,0.704,0.042,1.407,0.076
	c1.267,0.064,3.002,0.152,3.547,0.229c0.948,0.134,1.977,0.112,3.049-0.065c0.147-0.022,0.596-0.091,0.814-0.62
	c0.172-0.417,0.407-0.715,0.715-0.911c0.086-0.016,0.24-0.039,0.292-0.04c0.084-0.004,0.312,0.022,0.412,0.036
	c0.394,0.166,0.682,0.326,0.891,0.579c0.279,0.345,0.784,0.705,1.608,0.456c0.278-0.085,0.498-0.235,0.678-0.362
	c0.032,0.028,0.066,0.053,0.104,0.077l0.049,0.025c0.089,0.309,0.296,0.53,0.405,0.627c0.071,0.571,0.337,1.006,0.617,1.351
	c-0.314-0.09-0.629,0.034-0.798,0.285c-0.104,0.097-0.179,0.213-0.242,0.313c-0.351-0.02-0.693-0.052-1.011-0.11
	c-0.577-0.104-2.204-0.258-3.682-0.394l-0.335-0.032c-0.473-0.045-0.834-0.079-0.98-0.096c-0.538-0.065-1.033,0.217-1.328,0.76
	c-0.104,0.192-0.184,0.387-0.252,0.58c-0.192,0.472-0.243,0.849-0.288,1.315h0.001c-0.002,0.017-0.003,0.043-0.005,0.065
	c-0.003,0.021-0.007,0.048-0.009,0.07c-0.006,0.07-0.02,0.229-0.034,0.42C68.167,62.647,67.831,62.741,67.561,62.992 M54.903,57.864
	c0.402-0.331,0.82-1.047,0.755-1.723c-0.037-0.429-0.311-1.183-1.702-1.493c0.002-0.876-0.627-1.377-1.487-1.779
	c1.751-0.94,3.675-1.575,4.321-0.755c1.131,1.436,2.611,3.746,2.778,4.004l0.29,0.456l0.601-0.408
	c1.305-0.886,3.488-2.369,5.095-2.548c0.877-0.102,1.908,0.439,2.462,0.726c0.095,0.05,0.177,0.092,0.243,0.124
	c0.299,0.143,0.603,0.322,0.958,0.562l0.028,0.019c0.782,0.634,1.402,1.236,1.724,1.576c-0.106,0.164-0.204,0.337-0.289,0.53
	c-0.973,0.161-1.895,0.182-2.737,0.063c-0.591-0.084-2.283-0.169-3.698-0.24c-0.633-0.032-1.135-0.058-1.321-0.073
	c-0.541-0.042-1.037,0.283-1.294,0.846c-0.348,0.748-0.427,1.522-0.456,2.113c-0.001,0.012-0.042,0.918-0.024,1.434h-7.581
	c0.025-0.06,0.055-0.112,0.077-0.177c0.466,0.134,1.127-0.049,1.593-0.334c0.341-0.207,0.91-0.656,0.894-1.336
	C56.126,59.055,55.901,58.469,54.903,57.864 M79.564,57.988l0.891-0.558c-0.172-0.275-0.589-0.876-1.162-1.576
	c2.013-1.043,4.454-2.109,5.453-2.021c1.28,0.096,3.639,0.803,5.059,4.457l0.323,0.83l0.57-0.683
	c1.833-2.195,2.451-2.356,4.103-2.047c1.471,0.274,3.19,1.286,3.861,1.709l0.334,0.21l0.295-0.261
	c0.771-0.685,1.869-1.479,2.644-1.66c1.31-0.304,2.925-0.186,3.772-0.089c0.544,0.063,0.934,0.251,1.157,0.56
	c0.121,0.164,0.193,0.366,0.216,0.597l0.057,0.569l0.561-0.103c0.958-0.176,1.593-0.163,2.122,0.04l0.013-0.033
	c0.594,1.017,1.166,2.136,1.711,3.369H85.31c-0.028-0.083-0.05-0.167-0.058-0.257c-0.019-0.224-0.137-0.411-0.243-0.542
	c-0.175-0.202-0.173-0.224-0.128-0.291c0.096-0.136,0.131-0.312,0.091-0.476l-0.049-0.278l-0.414-0.163h-0.102h-0.009
	c-0.027-0.026-0.053-0.047-0.078-0.064l-0.147-0.073c-0.113-0.035-0.291-0.051-0.488,0.082c-0.213,0.069-0.388,0.178-0.554,0.281
	c-0.145,0.088-0.27,0.165-0.4,0.196c-0.311,0.074-0.397-0.003-0.496-0.131c-0.362-0.467-0.843-0.724-1.353-0.949
	c-0.132-0.046-0.571-0.106-0.721-0.11c-0.125-0.005-0.535,0.026-0.746,0.107c-0.286,0.142-0.539,0.335-0.76,0.57l-0.087-0.093
	c-0.381-0.404-0.655-0.724-0.713-1.191c-0.028-0.175-0.118-0.357-0.26-0.517c-0.206-0.228-0.193-0.25-0.149-0.324
	c0.101-0.155,0.098-0.323,0.087-0.409l-0.167-0.375l-0.265-0.12h-0.142c-0.011,0-0.021,0-0.032,0.001
	c-0.019-0.018-0.039-0.034-0.061-0.05l-0.164-0.08c-0.118-0.033-0.301-0.044-0.5,0.106c-0.202,0.079-0.365,0.193-0.531,0.309
	c-0.131,0.094-0.267,0.19-0.4,0.231c-0.295,0.089-0.383,0.013-0.488-0.115c-0.357-0.435-0.798-0.676-1.389-0.919
	c-0.139-0.046-0.586-0.077-0.74-0.083c-0.105,0.001-0.534,0.048-0.749,0.147c-0.075,0.042-0.14,0.097-0.21,0.146
	c-0.285-0.297-0.745-0.748-1.324-1.246c1.002-0.683,3.02-1.822,4.585-1.183c0.858,0.349,1.856,1.158,2.899,2.336l-0.011,0.009
	C78.71,56.736,79.348,57.643,79.564,57.988 M55.553,62.351h5.678c0.014,0.483,0.009,1.041-0.017,1.282L55.553,62.351z
	 M51.565,63.563l-1.81-0.569c0.306-0.156,0.59-0.356,0.825-0.614c0.241,0.122,0.598,0.246,0.988,0.279L51.565,63.563z
	 M52.618,62.764l2.292,0.52l0.001,1.329l-2.296-0.721L52.618,62.764z M55.964,64.943l-0.001-1.42l1.936,0.439v1.588L55.964,64.943z
	 M58.949,64.201l1.734,0.393v1.831l-1.734-0.544V64.201z M61.735,64.829l0.025,0.005c0.022,0.012,0.042,0.032,0.065,0.041
	c0.011,0.272,0.028,0.529,0.042,0.757l0.012,0.2c0.016,0.254,0.031,0.511,0.032,0.822c-0.002,0.06,0.005,0.11,0.013,0.16
	l-0.189-0.059V64.829z M69.464,63.679c-0.003-0.039-0.001-0.127,0.004-0.24l0.02-0.005l0.024-0.382
	c0.014-0.218,0.027-0.489,0.036-0.685l0.01-0.173c0.035-0.33,0.094-0.714,0.225-1.096c0.047-0.114,0.103-0.234,0.176-0.37
	c0.165-0.31,0.223-0.301,0.345-0.284c0.106,0.013,0.35,0.035,0.663,0.062l0.771,0.069c1.819,0.167,3.063,0.304,3.499,0.382
	c0.389,0.072,0.797,0.094,1.193,0.109c0.099,0.005,0.198,0.012,0.3,0.013l0.04,0.002l0.003-0.002
	c0.474,0.006,0.963-0.015,1.469-0.07c0.145-0.017,0.583-0.068,0.832-0.568c0.191-0.392,0.437-0.667,0.752-0.84
	c0.086-0.012,0.239-0.031,0.299-0.027c0.083,0.002,0.319,0.038,0.416,0.056c0.373,0.17,0.663,0.339,0.862,0.595
	c0.384,0.497,0.914,0.668,1.573,0.511c0.285-0.069,0.499-0.197,0.706-0.323c0.032,0.03,0.067,0.058,0.105,0.085l0.045,0.024
	c0.077,0.309,0.275,0.544,0.377,0.665c0.059,0.504,0.28,0.908,0.524,1.238c-0.249-0.071-0.509-0.004-0.727,0.205
	c-0.446,0.275-0.826,0.484-1.251,0.506c-0.687,0.037-1.59,0.752-1.623,1.503c-0.005,0.09-0.028,0.145-0.27,0.319l-0.053,0.027
	c-0.076,0.041-0.218,0.118-0.334,0.292c-0.071,0.109-0.152,0.226-0.506,0.214c-0.224-0.008-0.414,0.053-0.561,0.188
	c-0.101,0.094-0.225,0.264-0.235,0.543c-0.008,0.228-0.036,0.435-0.086,0.625c-0.01-0.029-0.021-0.059-0.034-0.088
	c-0.107-0.239-0.115-0.522-0.115-0.868c0-0.63-0.462-0.824-0.629-0.896c-0.306-0.134-0.632-0.205-0.995-0.216
	c-0.369-0.013-0.712,0.041-0.99,0.091l-0.192,0.032c-0.401,0.069-0.9,0.155-1.393,0.54c-0.006-0.002-0.03-0.014-0.061-0.041
	c-0.36-0.341-0.792-0.489-1.212-0.634c-0.232-0.08-0.421-0.149-0.563-0.241c-0.162-0.107-0.38-0.231-0.64-0.24
	c-0.005,0-0.008,0.001-0.012,0.001c-0.053-0.017-0.103-0.028-0.148-0.028h-0.002c-0.269-0.008-0.509,0.165-0.68,0.496
	c-0.002,0-0.005,0.001-0.007,0.001c-0.398,0.075-0.544,0.411-0.629,0.604l-0.106,0.172l0.012,0.059
	c-0.019,0.053-0.034,0.101-0.043,0.136c-0.006,0.022-0.024,0.065-0.08,0.148c-0.539,0.819-0.518,1.693-0.421,2.467
	c0.022,0.196,0.051,0.451,0.168,0.704c-0.027,0.008-0.054,0.018-0.08,0.028c-0.029-0.204-0.118-0.365-0.235-0.482
	c0.005-0.246,0-0.493-0.005-0.736l-0.002-0.121c-0.008-0.471-0.016-0.958,0.016-1.453l0.043-0.605l-0.599-0.04
	C69.505,65.047,69.534,64.054,69.464,63.679 M113.894,72.158H74.442v-1.844h39.514C113.97,70.938,113.949,71.552,113.894,72.158
	 M40.684,70.314h1.761v4.379h-1.761V70.314z M43.496,70.314h1.762v4.379h-1.762V70.314z M46.31,70.314h1.762v4.379H46.31V70.314z
	 M49.123,70.314h1.762v4.379h-1.762V70.314z M51.936,70.314h1.762v4.379h-1.762V70.314z M54.749,70.314h1.762v4.379h-1.762V70.314z
	 M57.563,70.314h1.762v4.379h-1.762V70.314z M60.376,70.314h1.761v4.379h-1.761V70.314z M63.189,70.314h1.762v4.379h-1.762V70.314z
	 M66.002,70.314h1.762v4.379h-1.762V70.314z M68.816,70.314h1.762v4.379h-1.762V70.314z M71.628,70.314h1.762v4.379h-1.762V70.314z
	 M72.761,66.92l-0.038,0.025l-0.006-0.007L72.761,66.92z M72.535,67.013l0.065,0.012l-0.267,0.172
	c-0.007-0.025-0.014-0.057-0.015-0.093L72.535,67.013z M71.382,68.737c-0.132-0.099-0.156-0.212-0.196-0.549
	c-0.054-0.435-0.057-0.816,0.028-1.168c0.103,0.084,0.228,0.132,0.36,0.132l0.052-0.002c0.007,0.012,0.016,0.026,0.025,0.041
	c0.14,0.236,0.383,0.412,0.668,0.48c0.085,0.02,0.17,0.03,0.253,0.03c0.182,0,0.355-0.048,0.502-0.143l0.254-0.225l0.031-0.169
	c0.029-0.161-0.013-0.317-0.132-0.489c-0.007-0.013-0.014-0.023-0.019-0.028c-0.166-0.326-0.286-0.671-0.382-0.995
	c0.113,0.045,0.227,0.087,0.338,0.126c0.308,0.105,0.598,0.204,0.797,0.393c0.439,0.402,1,0.429,1.469,0.067
	c0.241-0.189,0.537-0.24,0.887-0.3l0.187-0.031c0.232-0.042,0.505-0.082,0.777-0.075c0.225,0.006,0.42,0.047,0.605,0.127
	c0.002,0.417,0.025,0.823,0.197,1.196c0.002,0.027-0.018,0.101-0.032,0.148c-0.175,0.623-0.015,1.187,0.126,1.687l0.037,0.129
	c0.015,0.053,0.039,0.098,0.062,0.143h-6.545C71.68,69.06,71.554,68.869,71.382,68.737 M39.632,70.314v3.078
	c-0.156-1.001-0.266-2.029-0.338-3.078H39.632z M113.467,74.693H74.442V73.21h39.322C113.685,73.71,113.589,74.206,113.467,74.693
	 M113.897,69.262H80.385c-0.023-0.05-0.047-0.096-0.07-0.133c-0.209-0.446-0.326-0.935-0.427-1.399
	c-0.001-0.008-0.002-0.015-0.003-0.022c0.173-0.354,0.279-0.741,0.321-1.175c0.484-0.046,0.86-0.26,1.115-0.63l0.12-0.068
	c0.248-0.171,0.71-0.489,0.742-1.146c0.015-0.155,0.406-0.491,0.626-0.502c0.667-0.035,1.209-0.329,1.748-0.661l0.085-0.028
	l0.01-0.014c0.689,0.102,1.117-0.427,1.266-0.611l0.281-0.345l-0.156-0.178h25.948c0.37,0.907,0.728,1.864,1.067,2.888
	C113.516,66.619,113.782,67.958,113.897,69.262 M63.486,47.802v-3.664c2.657,0.727,9.262,1.979,16.603,1.47
	c0.077-0.006,0.16-0.013,0.242-0.019c1.151-0.085,2.318-0.214,3.489-0.396c0.012-0.001,0.025-0.003,0.037-0.005
	c0.002,0,0.003-0.001,0.005-0.002c0.008-0.001,0.017-0.003,0.026-0.004c0.015,0.002,0.031,0.007,0.047,0.007
	c0.042,0,0.085-0.005,0.127-0.015c0.09-0.023,0.23-0.053,0.384-0.084c0.528-0.09,1.055-0.192,1.581-0.305
	c0.238-0.046,0.444-0.088,0.574-0.118l0.261-0.071c0.567-0.134,1.131-0.281,1.693-0.445v4.556
	c-6.54,1.685-10.795,1.812-11.303,1.822c-0.574,0.045-1.161,0.068-1.743,0.068c-3.44,0-6.029-0.862-8.773-1.776l-0.089-0.03
	C65.643,48.458,64.598,48.118,63.486,47.802 M76.967,37.195c-0.092-0.122-0.183-0.246-0.271-0.378
	c-0.026-0.038-0.051-0.075-0.078-0.116c-0.113-0.175-0.22-0.358-0.325-0.546c-0.026-0.048-0.053-0.096-0.079-0.146
	c-0.051-0.095-0.097-0.192-0.145-0.289c-0.674-1.408-1.189-3.433-0.875-6.166l0.019-0.151c0.014-0.111,0.028-0.231,0.04-0.322
	c0.562,0.088,1.087,0.218,1.579,0.384c0.043,0.014,0.076,0.029,0.117,0.044c0.198,0.069,0.391,0.143,0.577,0.224
	c0.067,0.029,0.124,0.058,0.185,0.087c0.533,0.248,1.02,0.543,1.462,0.872c0.304,0.234,0.595,0.48,0.804,0.676
	c0.001,0.001,0.002,0.001,0.003,0.002c0.276,0.266,0.527,0.549,0.759,0.842c0.451,0.592,0.905,1.332,1.266,2.144
	c0.029,0.07,0.062,0.139,0.09,0.209c0.015,0.039,0.029,0.079,0.045,0.117c0.218,0.569,0.379,1.143,0.483,1.705
	c-0.014-0.006-0.031-0.008-0.046-0.014c-0.082-0.033-0.168-0.052-0.253-0.077c-0.093-0.028-0.185-0.061-0.282-0.079
	c-0.18-0.033-0.364-0.049-0.551-0.047c-0.736,0.015-1.423,0.317-1.932,0.848c-0.523,0.544-0.775,1.248-0.765,1.948
	c-0.079-0.085-0.143-0.153-0.166-0.175c-0.062-0.061-0.184-0.165-0.313-0.274c-0.198-0.178-0.402-0.35-0.613-0.518
	c-0.156-0.141-0.29-0.275-0.414-0.414c-0.038-0.043-0.076-0.085-0.114-0.13C77.107,37.375,77.037,37.288,76.967,37.195
	 M78.629,25.119c0.003-0.054,0.009-0.117,0.013-0.175c0.01-0.088,0.022-0.176,0.031-0.249c0.013-0.098,0.021-0.174,0.023-0.207
	c0.007-0.094,0.016-0.191,0.025-0.288c0.135-0.968,0.381-2.088,0.557-2.723c0.046,0.016,0.106,0.038,0.162,0.057
	c0.046,0.017,0.094,0.034,0.143,0.053c0.082,0.03,0.17,0.064,0.259,0.099c0.138,0.055,0.279,0.114,0.431,0.183
	c0.018,0.008,0.034,0.017,0.051,0.026c0.104,0.048,0.213,0.106,0.322,0.162c0.301,0.149,0.594,0.318,0.878,0.506
	c0.053,0.035,0.108,0.081,0.163,0.118c0.24,0.169,0.474,0.348,0.698,0.541c0.042,0.037,0.083,0.074,0.125,0.111
	c0.258,0.233,0.505,0.48,0.735,0.746c0.003,0.003,0.006,0.006,0.009,0.01c0.198,0.229,0.378,0.478,0.555,0.73
	c0.05,0.075,0.106,0.14,0.154,0.218c0.135,0.215,0.247,0.439,0.355,0.663c0.059,0.128,0.112,0.256,0.166,0.384
	c-0.101,0.069-0.191,0.151-0.282,0.233c-0.008,0.007-0.017,0.013-0.025,0.021c-0.09,0.082-0.17,0.171-0.248,0.265
	c-0.009,0.011-0.021,0.021-0.03,0.032c-0.011,0.013-0.021,0.029-0.031,0.042c-0.081,0.103-0.152,0.212-0.218,0.327
	c-0.009,0.016-0.017,0.026-0.026,0.042c-0.007,0.013-0.012,0.026-0.018,0.039c-0.051,0.097-0.1,0.194-0.14,0.297
	c-0.001,0.003-0.003,0.006-0.004,0.009c-0.018,0.046-0.032,0.093-0.045,0.141h0.003c-0.009,0.027-0.018,0.054-0.025,0.081h-0.002
	c-0.006,0.017-0.009,0.033-0.014,0.05c-0.016,0.062-0.036,0.12-0.048,0.182c0,0.001-0.001,0.002-0.001,0.002
	c-0.035,0.178-0.052,0.346-0.052,0.513c0,0.007,0,0.014,0.001,0.021c0,0.02,0.007,0.042,0.008,0.062
	c0.006,0.185,0.028,0.365,0.069,0.539c0,0.002,0,0.004,0.001,0.006c0.01,0.049,0.026,0.097,0.054,0.18
	c0.003,0.011,0.008,0.021,0.012,0.031c0.04,0.125,0.086,0.247,0.142,0.363c0.003,0.005,0.003,0.01,0.005,0.014
	c0.03,0.059,0.06,0.115,0.093,0.171c0.007,0.013,0.015,0.026,0.023,0.038c0.005,0.008,0.008,0.017,0.013,0.025
	c-0.022,0.012-0.042,0.027-0.063,0.039c-0.035,0.02-0.069,0.041-0.104,0.063c-0.094,0.059-0.185,0.123-0.271,0.192
	c-0.026,0.021-0.052,0.04-0.077,0.061c-0.106,0.093-0.205,0.192-0.296,0.299c-0.016,0.019-0.03,0.04-0.046,0.059
	c-0.073,0.092-0.141,0.189-0.203,0.29c-0.019,0.031-0.038,0.063-0.056,0.095c-0.065,0.117-0.124,0.238-0.172,0.364
	c-0.002,0.008-0.006,0.014-0.009,0.022c-0.048,0.133-0.084,0.272-0.112,0.413c-0.008,0.038-0.013,0.077-0.019,0.116
	c-0.007,0.05-0.019,0.099-0.024,0.149c-0.235-0.185-0.47-0.374-0.67-0.542c-0.666-0.585-1.396-1.399-1.987-2.553
	c-0.046-0.092-0.093-0.18-0.137-0.275c-0.248-0.53-0.468-1.119-0.635-1.792c-0.017-0.059-0.141-0.527-0.187-1.167l-0.006-0.259
	c0-0.013-0.007-0.024-0.008-0.037c-0.001-0.024-0.003-0.046-0.003-0.07c-0.001-0.031,0.001-0.071,0.005-0.118
	C78.621,25.146,78.628,25.134,78.629,25.119 M86.376,26.69c0.014,0.003,0.027,0.009,0.041,0.012c0.646,0.15,1.153,0.663,1.287,1.314
	c0.002,0.01,0.001,0.019,0.003,0.028c0.019,0.101,0.031,0.205,0.031,0.311v0.009c0,0.045-0.013,0.097-0.017,0.144
	c-0.016,0.008-0.028,0.021-0.043,0.03c-0.089,0.055-0.172,0.116-0.253,0.18c-0.054,0.041-0.106,0.083-0.155,0.127
	c-0.076,0.069-0.145,0.142-0.212,0.218c-0.046,0.051-0.089,0.103-0.131,0.158c-0.061,0.079-0.116,0.161-0.167,0.247
	c-0.038,0.062-0.071,0.125-0.104,0.189c-0.043,0.087-0.083,0.174-0.117,0.266c-0.011,0.027-0.026,0.052-0.035,0.079
	c-0.154,0.046-0.311,0.069-0.47,0.069c-0.483,0-0.84-0.208-1.064-0.393c-0.008-0.007-0.013-0.017-0.021-0.023l-0.075-0.064
	c-0.028-0.023-0.056-0.044-0.082-0.071l-0.001,0.001c-0.022-0.024-0.042-0.051-0.063-0.077l0.002-0.002
	c-0.059-0.071-0.113-0.146-0.16-0.226c-0.02-0.036-0.039-0.07-0.057-0.106c-0.039-0.08-0.07-0.165-0.098-0.253
	c-0.001-0.004-0.033-0.104-0.035-0.108c-0.033-0.142-0.049-0.269-0.049-0.386v-0.005c0-0.066,0.012-0.128,0.019-0.192
	c0.005-0.04,0.006-0.08,0.013-0.121c0.008-0.041,0.022-0.081,0.047-0.162c0.001-0.005,0.033-0.113,0.034-0.118
	c0.029-0.074,0.065-0.146,0.121-0.247c0.045-0.078,0.094-0.151,0.152-0.222c0.091-0.112,0.19-0.209,0.297-0.292
	c0.002-0.001,0.003-0.003,0.005-0.005c0.107-0.082,0.221-0.151,0.342-0.203c0.157-0.068,0.341-0.11,0.57-0.128
	c0.014-0.001,0.089-0.011,0.103-0.013C86.151,26.655,86.266,26.667,86.376,26.69 M89.744,27.813
	c0.073-0.156,0.151-0.332,0.231-0.521c0.048-0.115,0.095-0.229,0.14-0.345c0.078-0.198,0.157-0.41,0.235-0.645
	c0.038-0.113,0.073-0.226,0.108-0.34c0.041-0.135,0.082-0.278,0.122-0.426c0.03-0.106,0.065-0.212,0.092-0.318l0.066-0.312
	c0.011-0.045,0.022-0.087,0.033-0.135c0.207-0.102,0.414-0.204,0.645-0.293c0.002-0.001,0.003-0.002,0.005-0.002
	c0.307-0.119,0.633-0.226,0.976-0.321c0.004-0.001,0.01-0.003,0.015-0.004c0.34-0.094,0.696-0.176,1.063-0.245
	c0.008-0.001,0.017-0.002,0.025-0.004c0.325-0.06,0.66-0.106,1-0.144c0.189-0.02,0.377-0.035,0.566-0.046
	c0.277-0.008,0.575,0.002,0.838,0.027c0.287,0.037,0.5,0.086,0.539,0.093c1.353,0.163,2.504,0.883,3.706,1.67
	c-0.164,0.235-0.33,0.459-0.49,0.663c-0.007,0.008-0.013,0.017-0.016,0.021c-0.015,0.015-0.035,0.037-0.046,0.05
	c-0.168,0.208-0.347,0.411-0.54,0.617c-0.083-0.012-0.167-0.012-0.251-0.017c-0.054-0.003-0.107-0.01-0.159-0.01
	c-0.071,0-0.141,0.008-0.211,0.014c-0.099,0.008-0.198,0.02-0.294,0.039c-0.057,0.01-0.112,0.021-0.167,0.036
	c-0.157,0.04-0.312,0.089-0.46,0.158c-0.147,0.067-0.282,0.15-0.41,0.24c-0.039,0.027-0.078,0.054-0.114,0.083
	c-0.105,0.081-0.204,0.168-0.296,0.262c-0.038,0.04-0.072,0.08-0.108,0.122c-0.074,0.086-0.143,0.177-0.205,0.272
	c-0.036,0.053-0.069,0.107-0.101,0.163c-0.058,0.103-0.11,0.21-0.155,0.319c-0.013,0.031-0.03,0.058-0.042,0.089
	c-0.018,0.05-0.025,0.102-0.04,0.153c-0.023,0.076-0.045,0.152-0.06,0.231c-0.019,0.084-0.035,0.168-0.044,0.253
	c-0.001,0.004-0.002,0.009-0.003,0.015c-0.045-0.006-0.089-0.001-0.134-0.005c-0.111-0.009-0.223-0.016-0.335-0.011
	c-0.07,0.003-0.139,0.015-0.207,0.024c-0.117,0.015-0.234,0.03-0.348,0.059c-0.01,0.001-0.02-0.001-0.03,0.001
	c-0.331,0.062-0.597,0.102-0.827,0.128c-0.119,0.013-0.229,0.023-0.334,0.031c-0.275,0.019-0.501,0.019-0.742,0.018h-0.017
	c-0.229-0.008-0.475-0.028-0.754-0.059c-0.058-0.009-0.114-0.016-0.174-0.025c-0.065-0.01-0.13-0.02-0.189-0.029
	c-0.153-0.024-0.305-0.047-0.452-0.079l-0.007-0.001c-0.209-0.306-0.482-0.564-0.794-0.765c-0.004-0.002-0.009-0.004-0.014-0.007
	c-0.143-0.091-0.295-0.17-0.455-0.233c-0.044-0.018-0.091-0.027-0.135-0.042c-0.123-0.041-0.245-0.082-0.375-0.105
	c-0.011-0.002-0.023-0.008-0.035-0.01l0.011-0.023C89.644,28.031,89.693,27.922,89.744,27.813 M102.974,32.303
	c-0.088,0.041-0.179,0.07-0.271,0.094c-0.071,0.018-0.144,0.032-0.218,0.04l-0.024,0.003c-0.176,0.017-0.357,0.006-0.541-0.034
	c-0.009-0.002-0.018,0.003-0.028,0.001c-0.117-0.026-0.229-0.063-0.335-0.11c-0.017-0.008-0.032-0.016-0.049-0.024
	c-0.094-0.045-0.182-0.1-0.265-0.162c-0.025-0.018-0.05-0.036-0.073-0.055c-0.072-0.06-0.137-0.127-0.198-0.198
	c-0.022-0.025-0.046-0.048-0.067-0.075c-0.073-0.096-0.138-0.199-0.191-0.312c-0.001-0.002-0.003-0.004-0.004-0.007
	c-0.003-0.006-0.004-0.012-0.007-0.018c-0.04-0.092-0.071-0.186-0.095-0.28c0-0.003-0.001-0.004-0.002-0.006v-0.001
	c-0.038-0.15-0.05-0.302-0.045-0.452c0-0.015,0.002-0.03,0.003-0.044c0.026-0.461,0.239-0.904,0.604-1.211
	c0.06-0.05,0.114-0.091,0.169-0.129c0.065-0.042,0.13-0.085,0.202-0.118c0.001-0.001,0.003-0.002,0.005-0.002
	c0.225-0.104,0.479-0.155,0.743-0.15c0.328,0.007,0.637,0.103,0.898,0.27c0.008,0.006,0.015,0.013,0.024,0.019
	c0.109,0.072,0.205,0.16,0.294,0.255c0.024,0.025,0.046,0.05,0.067,0.076c0.091,0.11,0.173,0.229,0.235,0.363
	C104.2,30.894,103.827,31.91,102.974,32.303 M99.858,35.163c-0.3,0.034-0.605-0.008-0.883-0.132
	c-0.007-0.002-0.014-0.006-0.021-0.009c-0.143-0.066-0.279-0.15-0.402-0.255l-0.001-0.001c-0.194-0.166-0.344-0.361-0.445-0.579
	c0-0.002,0-0.003-0.001-0.004c-0.036-0.075-0.057-0.153-0.079-0.231c-0.014-0.052-0.029-0.104-0.04-0.165
	c-0.001-0.003-0.002-0.005-0.002-0.007c-0.029-0.154-0.034-0.308-0.02-0.46c0.001-0.003,0.003-0.005,0.003-0.008
	c0.027-0.283,0.125-0.557,0.283-0.791c0.001-0.001,0.001-0.004,0.002-0.006c0.087-0.128,0.192-0.243,0.314-0.345
	c0.002-0.002,0.005-0.002,0.007-0.004c0.055-0.046,0.106-0.082,0.156-0.116c0.068-0.044,0.134-0.089,0.211-0.124
	c0.001-0.001,0.001-0.001,0.002-0.001c0.097-0.045,0.199-0.077,0.302-0.102c0.032-0.007,0.064-0.012,0.096-0.018
	c0.077-0.014,0.154-0.022,0.233-0.025c0.043-0.001,0.084-0.005,0.127-0.004c0.018,0.044,0.035,0.087,0.055,0.129
	c0.309,0.668,0.858,1.177,1.551,1.434c0.01,0.003,0.02,0.004,0.03,0.008c0.004,0.042,0.016,0.082,0.016,0.124v0.018
	c-0.003,0.143-0.023,0.287-0.062,0.432v0.001c-0.097,0.358-0.303,0.667-0.58,0.889c-0.017,0.013-0.032,0.027-0.05,0.039
	c-0.09,0.068-0.186,0.129-0.29,0.177c-0.136,0.063-0.28,0.101-0.426,0.125C99.915,35.157,99.887,35.16,99.858,35.163 M88.886,42.952
	c-0.178,0.056-0.357,0.106-0.534,0.158l-1.676,0.448c-0.233,0.056-0.465,0.109-0.697,0.16c0.017-0.036,0.024-0.075,0.04-0.11
	c0.056-0.122,0.102-0.246,0.138-0.373c0.021-0.068,0.041-0.134,0.056-0.203c0.03-0.144,0.045-0.289,0.053-0.435
	c0.002-0.052,0.011-0.103,0.01-0.155c0-0.199-0.022-0.396-0.066-0.591c-0.009-0.038-0.025-0.074-0.036-0.113
	c-0.042-0.154-0.094-0.305-0.163-0.452c-0.008-0.018-0.012-0.038-0.021-0.056c0.109-0.024,0.211-0.065,0.315-0.101
	c0.03-0.01,0.06-0.018,0.09-0.029c0.087-0.033,0.171-0.073,0.254-0.115c0.07-0.036,0.137-0.074,0.205-0.116
	c0.058-0.036,0.118-0.072,0.174-0.113c0.127-0.093,0.249-0.193,0.36-0.309c0.138-0.143,0.254-0.298,0.354-0.46
	c0.019-0.031,0.031-0.065,0.048-0.096c0.077-0.138,0.147-0.279,0.199-0.426c0.003-0.009,0.009-0.017,0.012-0.026
	c0.257-0.023,0.518-0.035,0.78-0.036c-0.04,0.125-0.068,0.252-0.088,0.381c-0.002,0.007-0.004,0.014-0.005,0.02
	c-0.026,0.16-0.033,0.321-0.03,0.481c0.001,0.048,0.007,0.096,0.01,0.144c0.009,0.115,0.024,0.228,0.046,0.341
	c0.01,0.052,0.021,0.101,0.033,0.152c0.031,0.124,0.073,0.245,0.122,0.363c0.012,0.031,0.021,0.062,0.034,0.092
	c0.066,0.145,0.146,0.284,0.237,0.417c0.023,0.035,0.052,0.066,0.077,0.1c0.073,0.097,0.152,0.19,0.24,0.278
	c0.038,0.038,0.077,0.075,0.118,0.112c0.035,0.03,0.063,0.063,0.098,0.092c-0.2,0.171-0.326,0.274-0.429,0.354
	C89.125,42.813,89.005,42.888,88.886,42.952 M74.915,43.593c-0.328-0.605-0.764-1.297-1.272-1.947
	c-0.002-0.016-0.006-0.038-0.009-0.054c-0.023-0.164-0.048-0.335-0.081-0.528c-0.145-0.866-0.334-2.034-0.146-3.844
	c0.695,0.08,1.384,0.272,2.025,0.561c0.027,0.014,0.054,0.024,0.082,0.038c0.024,0.011,0.048,0.025,0.071,0.037
	c0.48,0.247,0.939,0.55,1.37,0.884c0.059,0.054,0.11,0.105,0.176,0.164l0.17,0.14c0.117,0.095,0.275,0.225,0.406,0.336
	c0.111,0.102,0.219,0.204,0.324,0.309c0.186,0.197,0.484,0.52,0.536,0.577c0.071,0.077,0.13,0.155,0.187,0.226
	c0.094,0.121,0.194,0.243,0.318,0.351c0.4,0.498,0.726,0.973,0.954,1.37c-0.083,0.152-0.184,0.345-0.291,0.558
	c-0.224,0.441-0.459,0.947-0.659,1.447c-0.052,0.13-0.104,0.259-0.151,0.384c-1.199,0.053-2.374,0.062-3.511,0.035
	c-0.11-0.279-0.277-0.634-0.489-1.026C74.922,43.605,74.919,43.6,74.915,43.593 M79.903,38.508c0.031-0.124,0.078-0.243,0.135-0.357
	c0.012-0.022,0.021-0.045,0.033-0.067c0.069-0.121,0.148-0.236,0.246-0.338c0.316-0.329,0.74-0.515,1.195-0.524
	c0.04-0.002,0.078,0.006,0.117,0.007c0.411,0.02,0.798,0.179,1.099,0.468c0.014,0.014,0.024,0.03,0.037,0.044
	c-0.004,0.015-0.004,0.03-0.009,0.044c-0.04,0.144-0.071,0.289-0.088,0.437c-0.004,0.03-0.004,0.059-0.007,0.089
	c-0.011,0.143-0.014,0.284-0.004,0.427c0.003,0.038,0.009,0.074,0.013,0.111c0.016,0.133,0.037,0.264,0.071,0.394
	c0.013,0.047,0.03,0.093,0.045,0.139c0.037,0.117,0.079,0.232,0.133,0.344c0.007,0.014,0.01,0.029,0.017,0.043
	c-0.386,0.082-0.75,0.245-1.071,0.488c-0.011,0.008-0.023,0.016-0.035,0.024c-0.103,0.082-0.203,0.168-0.297,0.266
	c0,0,0,0.001-0.001,0.001c-0.022,0.024-0.045,0.049-0.065,0.074c-0.416-0.018-0.8-0.179-1.1-0.467
	c-0.216-0.207-0.358-0.46-0.441-0.729c-0.001-0.005,0-0.009-0.001-0.014c-0.088-0.293-0.094-0.597-0.027-0.883
	C79.9,38.522,79.901,38.516,79.903,38.508 M83.312,31.952c0.006-0.033,0.015-0.064,0.023-0.096c0.015-0.06,0.028-0.12,0.049-0.178
	c0.013-0.037,0.029-0.071,0.045-0.107c0.021-0.05,0.044-0.101,0.07-0.148c0.02-0.036,0.042-0.069,0.064-0.102
	c0.029-0.045,0.058-0.089,0.091-0.13c0.025-0.032,0.051-0.061,0.079-0.091c0.036-0.04,0.074-0.078,0.115-0.114
	c0.028-0.026,0.057-0.051,0.088-0.075c0.044-0.035,0.09-0.068,0.139-0.098c0.031-0.02,0.061-0.039,0.092-0.056
	c0.055-0.03,0.112-0.056,0.17-0.08c0.029-0.013,0.06-0.026,0.09-0.037c0.014-0.005,0.028-0.007,0.043-0.011
	c0.128,0.089,0.266,0.164,0.41,0.231c0.002,0,0.003,0.001,0.004,0.002c0.097,0.044,0.198,0.078,0.3,0.112
	c0.071,0.023,0.139,0.048,0.212,0.066c0.069,0.016,0.139,0.028,0.212,0.039c0.108,0.018,0.215,0.029,0.324,0.033
	c0.035,0.001,0.067,0.01,0.102,0.01c0.034,0,0.068-0.009,0.102-0.01c0.037-0.002,0.075,0.003,0.112-0.001
	c0.054,0.063,0.106,0.133,0.154,0.21c0.023,0.136,0.058,0.266,0.099,0.395c0.007,0.02,0.012,0.041,0.02,0.061
	c0.042,0.124,0.092,0.241,0.151,0.356c0.005,0.009,0.008,0.02,0.013,0.029c0.004,0.026,0.008,0.052,0.008,0.079
	c0,0.133-0.018,0.261-0.046,0.385c-0.006,0.016-0.013,0.031-0.017,0.047c-0.093,0.355-0.294,0.657-0.559,0.879
	c-0.023,0.02-0.046,0.041-0.071,0.059c-0.047,0.036-0.098,0.067-0.148,0.098c-0.039,0.023-0.079,0.045-0.12,0.065
	c-0.046,0.023-0.092,0.044-0.14,0.062c-0.056,0.022-0.113,0.038-0.172,0.054c-0.039,0.01-0.077,0.022-0.117,0.03
	c-0.102,0.02-0.206,0.032-0.314,0.032c-0.086,0-0.169-0.013-0.252-0.026c-0.074-0.013-0.151-0.031-0.236-0.057
	c-0.472-0.143-0.857-0.48-1.059-0.924c-0.001-0.001-0.003-0.002-0.003-0.004c-0.006-0.013-0.015-0.024-0.02-0.037
	c-0.001-0.001-0.001-0.003-0.001-0.004c-0.044-0.104-0.076-0.211-0.099-0.32c-0.021-0.11-0.034-0.223-0.034-0.339
	C83.285,32.144,83.295,32.046,83.312,31.952 M87.452,30.514c0.027-0.125,0.071-0.243,0.124-0.357
	c0.009-0.02,0.021-0.037,0.031-0.056c0.048-0.093,0.105-0.183,0.169-0.265c0.015-0.02,0.031-0.038,0.047-0.057
	c0.07-0.081,0.146-0.155,0.229-0.222c0.015-0.012,0.029-0.026,0.045-0.037c0.092-0.069,0.191-0.128,0.297-0.177
	c0.009-0.004,0.021-0.002,0.031-0.007c0.144-0.067,0.266-0.108,0.38-0.129c0.001,0,0.001,0,0.001,0c0.001,0,0.002,0,0.004,0
	c0.675-0.127,1.425,0.21,1.78,0.841c0.001,0,0.001,0,0.001,0.001c0.001,0,0.001,0.001,0.001,0.002
	c0.071,0.126,0.124,0.257,0.161,0.389c0.003,0.01,0.007,0.02,0.01,0.03c0.035,0.135,0.055,0.271,0.055,0.409
	c0,0.943-0.764,1.711-1.705,1.711c-0.128,0-0.256-0.018-0.381-0.047c-0.025-0.006-0.048-0.015-0.072-0.022
	c-0.101-0.03-0.2-0.065-0.295-0.113c-0.021-0.01-0.041-0.022-0.06-0.033c-0.099-0.053-0.192-0.116-0.278-0.189
	c-0.011-0.01-0.023-0.019-0.035-0.029c-0.096-0.086-0.186-0.182-0.263-0.291c-0.002-0.003-0.006-0.004-0.008-0.007
	c-0.026-0.037-0.046-0.076-0.069-0.115c-0.002-0.005-0.002-0.01-0.005-0.015c-0.115-0.198-0.187-0.417-0.214-0.649
	c-0.001-0.003-0.003-0.006-0.004-0.009c-0.007-0.064-0.02-0.126-0.02-0.192c0-0.124,0.016-0.245,0.041-0.362
	C87.45,30.517,87.451,30.516,87.452,30.514 M92.815,30.57l0.16,0.001c0.035,0,0.071,0,0.106,0c0.047,0.001,0.099,0.005,0.145,0.005
	c0.008,0,0.015-0.001,0.023-0.001c-0.089,0.148-0.165,0.305-0.225,0.471c-0.127,0.345-0.184,0.705-0.17,1.062
	c0.001,0.012,0.005,0.024,0.005,0.036c0.008,0.166,0.03,0.332,0.069,0.495c0.01,0.044,0.031,0.086,0.045,0.129
	c0.038,0.13,0.075,0.259,0.133,0.384c0.002,0.004,0.004,0.009,0.006,0.014c-0.027,0.064-0.053,0.128-0.079,0.195
	c-0.005,0.011-0.008,0.024-0.012,0.038c-0.055,0.139-0.114,0.273-0.178,0.403c-0.075-0.013-0.151-0.013-0.228-0.021
	c-0.067-0.005-0.134-0.012-0.202-0.013c-0.096-0.001-0.192,0.004-0.289,0.012c-0.042,0.004-0.083,0.011-0.124,0.017
	c-0.086,0.011-0.172,0.013-0.257,0.033c-0.641,0.148-1.186,0.521-1.576,1.043c-0.012,0.015-0.025,0.029-0.037,0.044
	c-0.024,0.03-0.048,0.061-0.046,0.061h0.001c-0.015,0.017-0.036,0.046-0.051,0.069c-0.003,0.004-0.006,0.007-0.008,0.01
	c-0.003,0.005-0.004,0.011-0.007,0.015c-0.026,0.043-0.047,0.086-0.075,0.146c-0.035,0.065-0.066,0.134-0.097,0.202
	c-0.033,0.076-0.065,0.151-0.091,0.229c-0.009,0.029-0.017,0.057-0.029,0.1c-0.018,0.06-0.032,0.119-0.045,0.178
	c-0.029,0.127-0.044,0.255-0.053,0.385c-0.001,0.016-0.005,0.032-0.006,0.047c-0.005,0.037-0.007,0.078-0.007,0.132
	c0,0.123,0.012,0.246,0.029,0.369c0.003,0.025,0.002,0.05,0.006,0.076c-0.501,0.266-1.054,0.506-1.652,0.717
	c-0.005-0.014-0.014-0.025-0.018-0.039c-0.06-0.167-0.136-0.328-0.229-0.483c-0.018-0.032-0.033-0.066-0.053-0.097
	c-0.113-0.173-0.242-0.338-0.397-0.488c-0.136-0.13-0.28-0.242-0.434-0.339c-0.05-0.031-0.104-0.052-0.156-0.08
	c-0.105-0.057-0.21-0.117-0.32-0.159c-0.066-0.026-0.134-0.038-0.2-0.058c-0.102-0.031-0.203-0.065-0.307-0.084
	c-0.072-0.013-0.147-0.013-0.22-0.02c-0.09-0.009-0.18-0.026-0.27-0.026c-0.011,0-0.023,0.003-0.034,0.003
	c-0.035,0-0.069,0.006-0.104,0.008c-0.125,0.006-0.25,0.02-0.374,0.043c-0.05,0.009-0.098,0.021-0.147,0.032
	c-0.117,0.029-0.232,0.066-0.345,0.11c-0.039,0.016-0.079,0.028-0.118,0.046c-0.14,0.062-0.276,0.133-0.406,0.218
	c0.087-0.156,0.19-0.337,0.306-0.538c0.028-0.046,0.055-0.094,0.084-0.137c0.045-0.067,0.151-0.253,0.267-0.454
	c0.025-0.045,0.051-0.091,0.077-0.136c0.001-0.001,0.002-0.002,0.003-0.003c0.131,0.021,0.259,0.032,0.385,0.032
	c0.171,0,0.336-0.02,0.499-0.051c0.057-0.01,0.111-0.026,0.166-0.04c0.104-0.026,0.205-0.056,0.303-0.094
	c0.063-0.024,0.123-0.048,0.184-0.076c0.088-0.041,0.172-0.088,0.255-0.139c0.056-0.034,0.115-0.064,0.17-0.102
	c0.118-0.083,0.228-0.175,0.333-0.276c0.064-0.062,0.119-0.132,0.177-0.2c0.041-0.05,0.085-0.098,0.123-0.15
	c0.059-0.08,0.112-0.164,0.161-0.251c0.027-0.044,0.05-0.089,0.074-0.135c0.05-0.098,0.095-0.197,0.134-0.302
	c0.002-0.006,0.005-0.012,0.008-0.018c0.047,0.032,0.101,0.053,0.151,0.082c0.08,0.048,0.161,0.095,0.246,0.134
	c0.063,0.03,0.128,0.053,0.193,0.077c0.095,0.035,0.19,0.065,0.286,0.089c0.058,0.015,0.115,0.029,0.173,0.04
	c0.161,0.03,0.323,0.05,0.488,0.05c1.521,0,2.756-1.239,2.756-2.763c0-0.137-0.01-0.272-0.031-0.406
	c0.033,0.004,0.063,0.012,0.097,0.015c0.045,0.006,0.08,0.007,0.123,0.012C92.309,30.537,92.563,30.57,92.815,30.57 M97.18,28.758
	c0.03-0.055,0.063-0.107,0.099-0.158c0.024-0.034,0.049-0.068,0.076-0.1c0.034-0.043,0.07-0.085,0.108-0.124
	c0.039-0.039,0.082-0.075,0.125-0.111c0.033-0.027,0.065-0.057,0.101-0.082c0.084-0.059,0.171-0.112,0.265-0.156
	c0.102-0.047,0.206-0.079,0.312-0.104c0.051-0.012,0.101-0.019,0.153-0.026c0.048-0.007,0.096-0.013,0.144-0.016
	c0.063-0.003,0.127-0.002,0.19,0.002c0.08,0.004,0.158,0.018,0.235,0.033c0.038,0.008,0.074,0.01,0.111,0.02
	c0.003,0,0.006-0.001,0.009,0c0.002,0,0.004,0.003,0.007,0.004c0.081,0.022,0.161,0.059,0.239,0.093
	c0.047,0.021,0.097,0.039,0.143,0.064c0.046,0.026,0.093,0.055,0.142,0.089c0.075,0.052,0.143,0.113,0.21,0.177
	c0.043,0.043,0.088,0.084,0.129,0.134l0.002,0.001c0.088,0.107,0.169,0.221,0.229,0.352c0.002,0.004,0.006,0.008,0.007,0.012
	c0.004,0.007,0.007,0.017,0.011,0.025c-0.24,0.261-0.429,0.568-0.555,0.91c-0.049,0.132-0.077,0.268-0.105,0.404
	c-0.002,0.011-0.006,0.02-0.008,0.031c-0.026,0.132-0.036,0.264-0.042,0.398c-0.002,0.032-0.01,0.063-0.011,0.095
	c-0.024,0.001-0.048,0.008-0.072,0.01c-0.112,0.008-0.22,0.025-0.328,0.047c-0.051,0.01-0.102,0.017-0.151,0.029
	c-0.155,0.041-0.308,0.092-0.456,0.159c-0.127,0.059-0.249,0.129-0.374,0.216c-0.062-0.02-0.118-0.052-0.177-0.079
	c-0.071-0.034-0.141-0.07-0.207-0.112c-0.019-0.012-0.038-0.027-0.056-0.041c-0.069-0.048-0.134-0.098-0.194-0.154
	c-0.023-0.022-0.044-0.048-0.066-0.072c-0.049-0.052-0.098-0.104-0.14-0.162c-0.057-0.08-0.108-0.166-0.152-0.258
	c-0.003-0.007-0.009-0.012-0.012-0.021c-0.001-0.002-0.001-0.004-0.002-0.005c-0.032-0.071-0.053-0.146-0.076-0.219
	c-0.017-0.062-0.032-0.126-0.045-0.199v-0.001c-0.061-0.357-0.005-0.711,0.142-1.021C97.152,28.814,97.165,28.785,97.18,28.758
	 M97.705,35.415c0.001,0,0.001,0.001,0.002,0.002c0.004,0.034,0.009,0.069,0.01,0.104c0.001,0.037,0.003,0.074,0.001,0.112
	c-0.001,0.064-0.008,0.127-0.016,0.19c-0.006,0.035-0.009,0.07-0.015,0.105c-0.014,0.067-0.035,0.132-0.056,0.196
	c-0.01,0.029-0.017,0.058-0.027,0.087c-0.036,0.091-0.079,0.179-0.132,0.263c0,0.001-0.001,0.001-0.001,0.002
	c-0.081,0.13-0.184,0.242-0.294,0.344c-0.025,0.022-0.049,0.044-0.074,0.065c-0.118,0.096-0.246,0.181-0.389,0.244
	c-0.01,0.004-0.02,0.006-0.029,0.009c-0.003,0.001-0.007,0.001-0.011,0.003c-0.121,0.05-0.246,0.082-0.373,0.104
	c-0.018,0.003-0.035,0.004-0.053,0.007c-0.109,0.014-0.22,0.018-0.329,0.011c-0.024-0.001-0.048-0.002-0.072-0.004
	c-0.104-0.011-0.205-0.032-0.305-0.061c-0.025-0.008-0.052-0.012-0.077-0.021c-0.118-0.041-0.234-0.093-0.343-0.16l-0.003-0.002
	c-0.094-0.059-0.187-0.131-0.273-0.213c-0.106-0.101-0.194-0.216-0.268-0.337c-0.013-0.022-0.025-0.045-0.038-0.067
	c-0.221-0.402-0.28-0.888-0.138-1.341c0.003-0.006,0.002-0.012,0.004-0.019c0.042-0.128,0.095-0.253,0.167-0.37
	c0.02-0.03,0.04-0.06,0.063-0.091c0.007,0.003,0.014,0.008,0.02,0.011c0.314,0.115,0.638,0.173,0.962,0.173
	c0.023,0,0.044-0.006,0.067-0.007c0.074-0.001,0.145-0.016,0.218-0.024c0.111-0.011,0.221-0.017,0.329-0.043
	c0.179-0.04,0.355-0.098,0.524-0.176c0.003-0.001,0.006-0.002,0.01-0.003c0.016-0.008,0.032-0.019,0.049-0.027
	c0.078-0.038,0.155-0.078,0.23-0.126c0.031,0.096,0.066,0.187,0.106,0.273v0.001c0.067,0.144,0.147,0.277,0.234,0.404
	c0.014,0.02,0.029,0.038,0.044,0.057C97.513,35.207,97.606,35.314,97.705,35.415 M96.646,38.254c0.02-0.004,0.039-0.015,0.059-0.02
	h0.002c0.003,0.004,0.005,0.007,0.008,0.011c0.087,0.123,0.153,0.257,0.205,0.396c0.008,0.021,0.019,0.044,0.026,0.067
	c0.046,0.141,0.074,0.288,0.082,0.436c0.001,0.018,0.002,0.036,0.003,0.054c0.004,0.156-0.01,0.312-0.049,0.464
	c-0.001,0.006-0.003,0.012-0.005,0.017c-0.041,0.157-0.106,0.309-0.194,0.452c-0.014,0.019-0.037,0.048-0.045,0.06
	c-0.001,0-0.001,0.001-0.002,0.002c-0.001,0.002-0.002,0.004-0.004,0.005c-0.456,0.662-1.324,0.913-2.086,0.59
	c-0.072-0.027-0.142-0.061-0.216-0.107c-0.003-0.001-0.006-0.003-0.008-0.004l-0.001-0.001c-0.116-0.073-0.212-0.166-0.305-0.262
	c-0.033-0.035-0.068-0.069-0.098-0.105c-0.001-0.002-0.003-0.002-0.005-0.003c-0.084-0.105-0.156-0.218-0.213-0.339
	c-0.021-0.043-0.033-0.088-0.05-0.132c-0.033-0.091-0.058-0.184-0.077-0.279c-0.011-0.061-0.022-0.121-0.026-0.183
	c-0.007-0.093-0.002-0.188,0.006-0.283c0.004-0.046,0.001-0.092,0.009-0.139c0.408-0.215,0.768-0.536,1.032-0.951
	c0.002-0.004,0.005-0.006,0.007-0.009c0.024,0.011,0.048,0.018,0.071,0.029c0.119,0.061,0.241,0.113,0.366,0.156
	c0.019,0.006,0.038,0.015,0.058,0.021c0.266,0.084,0.543,0.131,0.823,0.131c0.037,0,0.075-0.011,0.112-0.013
	c0.093-0.004,0.184-0.018,0.276-0.032C96.486,38.271,96.567,38.273,96.646,38.254 M92.622,39.685
	c0.014,0.084,0.034,0.166,0.055,0.248c0.016,0.058,0.03,0.116,0.049,0.173c0.023,0.069,0.05,0.136,0.078,0.204
	c0.027,0.065,0.057,0.13,0.09,0.194c0.03,0.059,0.062,0.116,0.096,0.173c0.015,0.024,0.026,0.049,0.04,0.072
	c-0.004,0.015-0.007,0.032-0.012,0.047c-0.041,0.122-0.091,0.239-0.158,0.345c-0.057,0.093-0.124,0.177-0.196,0.254
	c-0.044,0.047-0.093,0.088-0.141,0.129c-0.029,0.024-0.055,0.05-0.084,0.072c-0.07,0.051-0.141,0.095-0.216,0.135
	c-0.011,0.006-0.023,0.013-0.033,0.018c-0.442,0.221-0.976,0.251-1.455,0.043c-0.004-0.002-0.008-0.001-0.012-0.003
	c-0.002-0.001-0.004-0.004-0.006-0.005c-0.07-0.03-0.143-0.06-0.209-0.101c-0.797-0.497-1.041-1.547-0.52-2.378
	c0.172-0.262,0.411-0.472,0.698-0.605c0.072,0.057,0.145,0.108,0.221,0.155c0.124,0.078,0.252,0.142,0.383,0.197
	c0.014,0.006,0.028,0.009,0.04,0.015c0.125,0.05,0.252,0.091,0.38,0.122c0.004,0.001,0.008,0.002,0.012,0.003
	c0.213,0.051,0.429,0.081,0.644,0.081c0.074,0,0.146-0.008,0.219-0.013c0,0.103,0.012,0.205,0.024,0.307
	C92.613,39.605,92.616,39.646,92.622,39.685 M89.065,38.367c0.218-0.091,0.43-0.186,0.636-0.285
	c-0.115,0.091-0.225,0.186-0.325,0.294C89.272,38.37,89.169,38.369,89.065,38.367 M86.927,39.276
	c-0.014,0.027-0.026,0.055-0.041,0.082c-0.07,0.131-0.153,0.254-0.257,0.361c-0.097,0.101-0.206,0.184-0.32,0.255
	c-0.025,0.016-0.051,0.029-0.077,0.044c-0.105,0.057-0.214,0.107-0.33,0.141c-0.011,0.003-0.023,0.008-0.035,0.011
	c-0.277,0.075-0.577,0.081-0.876,0.007c-0.005-0.001-0.009,0-0.014-0.001c-0.221-0.056-0.427-0.155-0.614-0.298
	c-0.003-0.003-0.008-0.003-0.012-0.006c-0.045-0.035-0.094-0.067-0.136-0.107c-0.077-0.074-0.144-0.155-0.204-0.238v-0.003
	c-0.085-0.119-0.152-0.247-0.203-0.382c-0.003-0.007-0.004-0.014-0.007-0.021c-0.046-0.129-0.077-0.262-0.092-0.397l-0.003-0.021
	c-0.026-0.286,0.018-0.581,0.138-0.854c0.001-0.002,0-0.004,0.001-0.005c0.002-0.004,0.005-0.006,0.007-0.01
	c0.042-0.094,0.089-0.178,0.138-0.255c0.049-0.071,0.1-0.14,0.161-0.205c0.004-0.006,0.008-0.012,0.014-0.018
	c0.162-0.169,0.352-0.298,0.555-0.385c0.204-0.087,0.421-0.133,0.64-0.137c0.217-0.005,0.436,0.032,0.643,0.111
	c0.207,0.078,0.401,0.199,0.571,0.361c0.092,0.089,0.168,0.182,0.231,0.276c0.008,0.011,0.013,0.023,0.019,0.034
	c0.174,0.275,0.242,0.557,0.261,0.769c0,0.003,0.002,0.006,0.003,0.009c0.014,0.156,0.01,0.312-0.019,0.466
	C87.041,39.006,86.989,39.145,86.927,39.276 M84.309,43.965c-0.122,0.062-0.254,0.108-0.391,0.14
	c-0.075,0.012-0.151,0.025-0.227,0.036c-0.371,0.035-0.734-0.045-1.041-0.226c-0.005-0.003-0.011-0.005-0.015-0.008
	c-0.105-0.063-0.203-0.137-0.292-0.223c-0.112-0.107-0.201-0.231-0.277-0.36c-0.02-0.032-0.038-0.064-0.054-0.096
	c-0.137-0.268-0.2-0.566-0.183-0.868c0.001-0.027,0.003-0.054,0.006-0.08c0.017-0.156,0.05-0.312,0.11-0.462
	c0.001-0.001,0.001-0.002,0.001-0.003c0.058-0.143,0.141-0.277,0.24-0.403c0.002-0.003,0.004-0.005,0.006-0.007
	c0.031-0.044,0.062-0.089,0.1-0.13c0.355-0.369,0.786-0.475,1.085-0.498c0.012-0.001,0.022-0.009,0.032-0.01
	c0.034-0.002,0.065-0.01,0.098-0.01c0.103,0,0.206,0.01,0.31,0.028c0.126,0.09,0.26,0.165,0.4,0.231l0.002,0.001
	c0.129,0.061,0.262,0.111,0.399,0.151c0.008,0.003,0.015,0.007,0.023,0.009c0.021,0.015,0.043,0.03,0.061,0.047
	c0.255,0.245,0.418,0.551,0.489,0.872c0.116,0.537-0.027,1.119-0.434,1.543c-0.108,0.114-0.236,0.205-0.371,0.283
	C84.36,43.938,84.335,43.951,84.309,43.965 M83.585,34.605c0.003,0.002,0.005,0.004,0.008,0.006
	c-0.069,0.117-0.144,0.242-0.219,0.37c-0.08-0.252-0.169-0.495-0.264-0.73C83.255,34.386,83.414,34.503,83.585,34.605
	 M80.649,43.295c0.057-0.114,0.113-0.223,0.167-0.323c0.002,0.016,0.008,0.031,0.011,0.046c0.006,0.026,0.015,0.052,0.022,0.077
	c0.031,0.133,0.072,0.262,0.123,0.389c0.017,0.042,0.036,0.083,0.054,0.125c0.054,0.114,0.115,0.225,0.184,0.332
	c0.024,0.036,0.043,0.072,0.067,0.106c0.091,0.128,0.191,0.25,0.304,0.363c-0.502,0.051-1.001,0.092-1.498,0.126
	C80.26,44.11,80.464,43.667,80.649,43.295 M92.216,34.828c0.066-0.006,0.133-0.012,0.201-0.011c0.116,0.004,0.231,0.022,0.343,0.048
	c0.041,0.01,0.082,0.02,0.122,0.033c0.133,0.043,0.263,0.095,0.384,0.171c0.013,0.008,0.027,0.017,0.041,0.026
	c-0.064,0.359-0.055,0.73,0.029,1.096c0.006,0.025,0.019,0.047,0.024,0.072c0.001,0.003,0.003,0.007,0.004,0.01
	c0.047,0.179,0.112,0.349,0.191,0.512c0.017,0.036,0.041,0.069,0.06,0.104c0.07,0.127,0.145,0.249,0.233,0.363
	c0.011,0.014,0.016,0.03,0.027,0.044c-0.018,0.039-0.035,0.087-0.057,0.122c0,0.001,0,0.002-0.001,0.002
	c0,0.001-0.001,0.002-0.001,0.002c-0.087,0.139-0.198,0.259-0.321,0.366c-0.016,0.015-0.034,0.03-0.052,0.045
	c-0.129,0.104-0.274,0.193-0.434,0.258c-0.002,0-0.003,0.002-0.005,0.003c-0.054,0.021-0.107,0.038-0.163,0.054
	c-0.002,0.001-0.005,0-0.007,0c-0.349,0.099-0.705,0.087-1.031-0.026c-0.007-0.003-0.015-0.003-0.022-0.006
	c-0.11-0.04-0.216-0.091-0.318-0.154c-0.099-0.062-0.195-0.14-0.295-0.238c0,0-0.001,0-0.001-0.001
	c-0.188-0.188-0.326-0.416-0.411-0.672c-0.001-0.004,0-0.009-0.002-0.013c-0.058-0.178-0.086-0.355-0.086-0.529
	c0-0.006,0-0.013-0.001-0.02c0.003-0.024,0.006-0.057,0.007-0.068c0.004-0.073,0.007-0.146,0.021-0.222
	c0.009-0.051,0.025-0.1,0.04-0.149c0-0.002,0.022-0.076,0.022-0.078c0.008-0.026,0.015-0.053,0.023-0.075
	c0.024-0.061,0.056-0.117,0.091-0.181l0.047-0.099c0.015-0.018,0.028-0.036,0.029-0.038c0.006-0.007,0.041-0.052,0.047-0.059
	c0.269-0.37,0.669-0.605,1.099-0.678C92.134,34.835,92.175,34.832,92.216,34.828 M96.035,30.368
	c0.036,0.128,0.078,0.247,0.131,0.361c0.082,0.176,0.187,0.337,0.303,0.49c0.028,0.039,0.057,0.075,0.088,0.111
	c0.119,0.143,0.249,0.278,0.396,0.394c0.02,0.016,0.043,0.028,0.065,0.044c0.091,0.068,0.183,0.135,0.284,0.192
	c0,0.027-0.001,0.054-0.002,0.082c-0.091,0.151-0.169,0.31-0.232,0.478c-0.066,0.181-0.111,0.366-0.139,0.552
	c-0.053,0.068-0.115,0.123-0.177,0.18c-0.059,0.057-0.117,0.102-0.176,0.145c-0.08,0.056-0.16,0.113-0.251,0.154
	c-0.004,0.002-0.008,0.003-0.012,0.005c-0.112,0.05-0.226,0.086-0.342,0.111c-0.039,0.008-0.078,0.01-0.117,0.016
	c-0.086,0.012-0.171,0.02-0.257,0.019c-0.039-0.001-0.078-0.004-0.116-0.007c-0.094-0.008-0.188-0.023-0.28-0.047
	c-0.026-0.007-0.053-0.013-0.08-0.021c-0.119-0.037-0.236-0.084-0.348-0.148c-0.002-0.002-0.005-0.002-0.007-0.003
	c-0.252-0.144-0.457-0.349-0.608-0.598c-0.002-0.004-0.002-0.009-0.004-0.013l-0.05-0.082c-0.015-0.023-0.031-0.045-0.042-0.07
	c0,0,0-0.001-0.001-0.001c-0.049-0.105-0.085-0.214-0.111-0.323c-0.007-0.031-0.007-0.064-0.013-0.096
	c-0.014-0.078-0.029-0.157-0.032-0.235c-0.001-0.043,0.006-0.087,0.008-0.13c0.003-0.066,0.003-0.133,0.014-0.199
	c0.017-0.108,0.045-0.215,0.083-0.32c0.039-0.105,0.088-0.204,0.144-0.297c0.037-0.061,0.082-0.115,0.127-0.171
	c0.024-0.03,0.044-0.064,0.071-0.093c0.054-0.061,0.118-0.112,0.182-0.165c0.023-0.018,0.042-0.041,0.067-0.059
	c0.09-0.066,0.188-0.124,0.294-0.173c0-0.001,0.001-0.001,0.002-0.001c0.065-0.03,0.133-0.046,0.201-0.067
	c0.009-0.003,0.014-0.005,0.024-0.008c0.001,0,0.003-0.002,0.004-0.002c0.004-0.001,0.007-0.003,0.011-0.004
	c0.001,0,0.002,0,0.002,0c0.087-0.026,0.174-0.042,0.262-0.052c0.013-0.001,0.026-0.003,0.04-0.004
	c0.083-0.008,0.166-0.01,0.249-0.004c0.036,0.002,0.071,0.009,0.106,0.013C95.876,30.333,95.956,30.346,96.035,30.368
	 M95.742,45.684c-2.381,0-4.599-0.641-6.134-1.23v-0.691c0.114-0.073,0.223-0.153,0.376-0.277c0.153-0.115,0.304-0.244,0.454-0.382
	c0.05-0.043,0.097-0.084,0.156-0.134l0.062-0.067c0.005-0.004,0.009-0.007,0.013-0.012c0.244,0.069,0.493,0.102,0.741,0.102
	c0.625,0,1.238-0.216,1.732-0.613c0.014-0.012,0.028-0.023,0.043-0.035c0.089-0.075,0.174-0.156,0.255-0.244
	c0.02-0.022,0.041-0.042,0.061-0.065c0.091-0.106,0.177-0.217,0.252-0.338c0.03-0.048,0.059-0.097,0.085-0.146
	c0.001,0,0.003,0.001,0.005,0.002c0.008,0.006,0.017,0.012,0.024,0.017c0.002,0.001,0.002,0.002,0.003,0.002s0.001,0,0.002,0
	l0.006,0.005c0.008,0.004,0.018,0.01,0.026,0.015c0.015,0.008,0.028,0.012,0.041,0.02c0.436,0.253,0.913,0.378,1.384,0.378
	c0.78,0,1.54-0.332,2.073-0.939c1.585,0.208,3.041,0.917,4.743,2.315C100.502,44.904,98.352,45.684,95.742,45.684 M106.743,36.07
	c-1.507,2.315-5.055,3.954-8.682,3.954c-0.028,0-0.057,0-0.087-0.001c0.008-0.027,0.008-0.055,0.014-0.082
	c0.035-0.131,0.057-0.262,0.072-0.395c0.005-0.044,0.013-0.086,0.015-0.13c0.012-0.181,0.008-0.362-0.015-0.541
	c-0.001-0.007-0.004-0.014-0.005-0.021c-0.024-0.169-0.067-0.334-0.121-0.497c-0.015-0.045-0.034-0.088-0.052-0.132
	c-0.049-0.125-0.106-0.245-0.174-0.362c-0.015-0.026-0.022-0.055-0.038-0.081c0.066-0.049,0.123-0.11,0.186-0.166
	c0.062-0.056,0.129-0.106,0.186-0.168c0.12-0.128,0.229-0.267,0.322-0.418c0.01-0.017,0.016-0.035,0.026-0.052
	c0.079-0.132,0.149-0.267,0.203-0.409c0.017-0.042,0.023-0.087,0.037-0.131c0.039-0.119,0.078-0.238,0.101-0.362
	c0-0.003,0.002-0.005,0.003-0.008c0.004,0.002,0.01,0.002,0.015,0.004c0.293,0.102,0.6,0.162,0.914,0.162
	c0.024,0,0.048-0.007,0.072-0.008c0.09-0.002,0.179-0.017,0.269-0.029c0.091-0.011,0.182-0.015,0.272-0.036
	c0.182-0.042,0.362-0.1,0.535-0.179c0.616-0.285,1.08-0.776,1.345-1.359c0.296,0.034,0.597,0.077,0.882,0.122
	c0.025,0.005,0.047,0.008,0.072,0.013c0.002,0,0.006,0,0.009,0c0.513,0.085,0.962,0.177,1.216,0.242
	c0.366,0.093,0.843,0.269,1.416,0.523C106.086,35.675,106.409,35.865,106.743,36.07 M103.25,33.714
	c-0.307-0.055-0.597-0.096-0.849-0.125c0.001-0.031,0.001-0.061,0.002-0.091c0.007,0,0.013-0.003,0.02-0.003
	c0.162-0.009,0.322-0.026,0.48-0.064c0.175-0.04,0.347-0.096,0.512-0.172c1.207-0.558,1.82-1.885,1.527-3.135
	c-0.016-0.068-0.048-0.133-0.069-0.2c-0.035-0.11-0.063-0.221-0.113-0.329c-0.069-0.148-0.152-0.285-0.243-0.416
	c-0.025-0.034-0.049-0.067-0.074-0.1c-0.092-0.122-0.192-0.237-0.302-0.341c-0.013-0.012-0.027-0.022-0.04-0.034
	c-0.077-0.07-0.157-0.136-0.241-0.195c0.055-0.019,0.11-0.038,0.166-0.055c0.053-0.018,0.11-0.036,0.166-0.053
	c0.45-0.142,0.901-0.267,1.313-0.365c0.159-0.037,0.318-0.075,0.475-0.104c0.012-0.002,0.025-0.005,0.037-0.007
	c0.235-0.042,0.465-0.074,0.679-0.089c1.3-0.095,2.887,0.205,4.46,0.587C109.192,31.918,106.534,33.697,103.25,33.714
	 M104.912,21.488c1.014-0.453,2.451-0.706,3.527-0.639c0.061,1.133,0.01,4.121-2.021,5.951c-0.186,0.018-0.405,0.056-0.636,0.1
	c-0.847,0.156-1.742,0.429-2.439,0.671c-0.412,0.14-0.806,0.286-1.146,0.427c-0.373,0.008-0.744,0.088-1.094,0.25
	c-0.005,0.002-0.011,0.004-0.016,0.007c-0.039-0.072-0.091-0.142-0.139-0.212c-0.029-0.043-0.053-0.089-0.085-0.13
	c-0.001-0.002-0.002-0.004-0.003-0.005c-0.022-0.03-0.047-0.057-0.074-0.084c-0.012-0.016-0.028-0.028-0.042-0.043
	c-0.09-0.105-0.182-0.205-0.286-0.293c-0.004-0.003-0.007-0.008-0.011-0.011c-0.003-0.003-0.052-0.04-0.056-0.043
	c-0.038-0.031-0.081-0.058-0.121-0.087c-0.043-0.03-0.082-0.066-0.126-0.093c0.119-0.127,0.233-0.263,0.328-0.423
	c0.085-0.105,0.354-0.449,0.654-0.885l0.195-0.299c0.014-0.021,0.026-0.043,0.038-0.066c0-0.001,0.181-0.392,0.248-0.525
	c0.078-0.163,0.155-0.346,0.235-0.538c0.042-0.1,0.087-0.204,0.131-0.308c0.193-0.428,0.396-0.822,0.622-1.064
	C103.067,22.75,104.317,21.751,104.912,21.488 M97.677,21.778c0.484-0.833,1.329-1.544,2.144-2.231
	c0.253-0.213,0.51-0.429,0.756-0.649c0.429,0.858,0.94,2.156,1.103,3.7c-0.023,0.029-0.042,0.063-0.065,0.094
	c-0.059,0.08-0.115,0.161-0.168,0.246c-0.013,0.023-0.027,0.046-0.041,0.069c-0.147,0.248-0.275,0.505-0.387,0.763
	c-0.072,0.157-0.141,0.317-0.209,0.476c-0.049,0.111-0.097,0.222-0.145,0.33c-0.382-0.254-0.749-0.478-1.109-0.686
	c-0.194-0.113-0.389-0.222-0.586-0.324c-0.046-0.023-0.092-0.047-0.137-0.069c-0.216-0.108-0.437-0.204-0.661-0.293
	c-0.083-0.032-0.166-0.063-0.249-0.093c-0.163-0.059-0.33-0.108-0.498-0.153c-0.073-0.02-0.147-0.051-0.22-0.068
	c0.002-0.004,0.003-0.008,0.004-0.012C97.343,22.491,97.486,22.104,97.677,21.778 M96.557,18.261
	c0.156,1.647,0.019,3.18-0.388,4.412c-0.004,0.01-0.009,0.022-0.012,0.032c-0.038-0.004-0.078-0.006-0.116-0.009
	c-0.266-0.034-0.593-0.06-0.929-0.043c-0.044,0.002-0.089,0.008-0.135,0.01c-0.17,0.007-0.329,0.015-0.454,0.029
	c-0.049,0.005-0.095,0.013-0.144,0.019c-0.267,0.027-0.532,0.065-0.795,0.108c-0.018,0.003-0.036,0.006-0.054,0.009
	c-0.918,0.153-1.798,0.391-2.569,0.698c0.058-0.532,0.076-1.135,0.017-1.815c-0.002-0.028-0.004-0.056-0.007-0.084
	c-0.019-0.191-0.047-0.389-0.081-0.593c-0.015-0.093-0.021-0.189-0.038-0.281c-0.001-0.007-0.003-0.015-0.005-0.022l-0.042-0.181
	c-0.002-0.012-0.003-0.022-0.006-0.034C92,19.45,94.018,18.66,96.557,18.261 M89.685,20.373l0.023,0.099v0.001
	c0.049,0.192,0.088,0.377,0.121,0.557c0.134,0.751,0.162,1.537,0.088,2.345c-0.008,0.069-0.014,0.139-0.022,0.206
	c-0.027,0.236-0.059,0.473-0.103,0.712c-0.002,0.01-0.003,0.021-0.005,0.03v0.003v0.002l-0.064,0.297
	c-0.041,0.183-0.083,0.357-0.127,0.522c-0.094,0.355-0.2,0.709-0.326,1.063c-0.02,0.052-0.038,0.106-0.057,0.156
	c-0.14,0.374-0.3,0.746-0.475,1.116c-0.018,0.038-0.037,0.078-0.054,0.116c-0.075-0.264-0.195-0.513-0.347-0.744
	c-0.014-0.021-0.027-0.042-0.042-0.063c-0.093-0.133-0.193-0.261-0.31-0.378c-0.369-0.369-0.825-0.613-1.319-0.729
	c-0.027-0.006-0.053-0.018-0.08-0.024c-0.18-0.036-0.364-0.055-0.552-0.055c-0.049,0-0.098,0.005-0.201,0.017
	c-0.025,0.002-0.049,0.008-0.074,0.011c-0.102,0.01-0.204,0.014-0.302,0.035c-0.059-0.139-0.118-0.274-0.169-0.38
	c-0.015-0.033-0.034-0.069-0.051-0.102c-0.039-0.084-0.085-0.171-0.127-0.257c-0.01-0.019-0.021-0.038-0.031-0.057
	c-0.059-0.116-0.114-0.23-0.183-0.351c-0.006-0.01-0.045-0.076-0.051-0.086c-0.043-0.07-0.071-0.124-0.11-0.189
	c-0.008-0.015-0.013-0.025-0.022-0.041c-0.172-0.308-0.528-0.952-0.67-1.49c-0.027-0.123-0.044-0.251-0.065-0.377
	c-0.045-0.263-0.077-0.532-0.095-0.807c-0.003-0.044-0.006-0.087-0.008-0.13c-0.014-0.259-0.015-0.522-0.006-0.79
	c0.002-0.069,0.005-0.137,0.009-0.206c0.013-0.233,0.035-0.469,0.065-0.706c0.015-0.124,0.031-0.247,0.051-0.371
	c0.027-0.172,0.06-0.344,0.094-0.517c0.043-0.208,0.089-0.418,0.145-0.628c0.02-0.081,0.043-0.163,0.066-0.244
	c0.269-0.95,0.657-1.906,1.16-2.833c0.011-0.021,0.023-0.041,0.034-0.062c0.251,0.162,0.49,0.33,0.721,0.501
	c0.067,0.051,0.134,0.102,0.199,0.154c0.076,0.059,0.148,0.12,0.221,0.18c0.113,0.095,0.226,0.191,0.324,0.283
	c0.023,0.021,0.052,0.032,0.077,0.049C88.382,17.412,89.271,18.808,89.685,20.373 M90.485,10.86
	c-1.022,1.016-2.108,2.384-3.274,4.126c-0.339-0.277-0.72-0.555-1.101-0.803C87.522,12.627,88.985,11.516,90.485,10.86
	 M83.281,17.636c-0.008,0.032-0.013,0.064-0.022,0.097c-0.438,1.57-0.563,3.118-0.358,4.541c-0.197-0.16-0.394-0.306-0.591-0.443
	c-0.084-0.059-0.169-0.117-0.255-0.174c-0.181-0.118-0.361-0.225-0.537-0.326c-0.035-0.02-0.07-0.045-0.106-0.064
	c0.031-0.217,0.07-0.432,0.109-0.647C81.941,19.802,82.569,18.708,83.281,17.636 M88.675,5.046
	c-2.647,3.026-6.989,8.817-8.181,15.297c-0.007,0.022-0.017,0.043-0.021,0.066c-0.019,0.107-0.038,0.224-0.057,0.338
	c-0.002,0.012-0.005,0.022-0.006,0.033c-0.055-0.023-0.106-0.042-0.16-0.063c-0.075-0.031-0.148-0.061-0.22-0.087
	c-0.023-0.01-0.044-0.017-0.066-0.025c-0.085-0.032-0.167-0.062-0.244-0.088c-0.223-0.078-0.389-0.129-0.445-0.142
	c-0.081-0.023-0.154-0.044-0.215-0.059c-0.007-0.002-0.014,0-0.022-0.002c-0.037-0.008-0.074-0.014-0.11-0.014
	c-0.01,0-0.019,0.005-0.028,0.006c-0.052,0.003-0.1,0.016-0.148,0.033c-0.015,0.005-0.032,0.003-0.046,0.01
	c0.035-0.89,0.078-1.694,0.123-2.261C79.187,16.885,81.776,8.926,88.675,5.046 M82.925,2.191c-3.086,3.942-5.902,9.587-5.285,26.445
	c-0.088-0.035-0.183-0.061-0.274-0.093c-0.134-0.049-0.269-0.097-0.415-0.143c-0.116-0.036-0.235-0.069-0.354-0.101
	c-0.198-0.055-0.403-0.104-0.614-0.149c-0.057-0.013-0.112-0.026-0.168-0.037c-0.31-0.061-0.627-0.114-0.955-0.146
	c-0.014-0.002-0.03-0.003-0.044-0.003c-0.123-0.46-0.256-0.909-0.403-1.345c-0.019-0.059-0.04-0.114-0.06-0.172
	c-0.136-0.393-0.28-0.777-0.433-1.149c-0.049-1.061-0.045-2.849,0.09-4.68C74.443,15.193,76.226,6.546,82.925,2.191 M61.314,3.696
	c4.184,2.029,8.218,5.431,11.891,14.543c-0.191,1.289-0.289,2.65-0.334,3.874c-0.015,0.338-0.025,0.655-0.031,0.95
	c-0.473-0.851-0.984-1.636-1.514-2.358C69.945,17.575,65.855,8.796,61.314,3.696 M68.863,24.284
	c-0.359-0.851-2.693-5.936-7.816-7.913c-3.032-1.17-6.437-1.031-10.142,0.409c0.914-0.977,2.136-1.707,3.135-2.049
	c3.743-1.289,8.028-0.441,9.875,0.573c0.22,0.122,3.607,2.026,6.486,5.909c0.017,0.037,0.036,0.078,0.05,0.113l0.055,0.123
	c0.014,0.032,0.032,0.063,0.053,0.092l0.323,0.45c0.65,0.843,1.625,2.654,2.029,3.65c0.002,0.003,0.004,0.005,0.006,0.009
	c0.003,0.006,0.002,0.015,0.005,0.022c0.125,0.271,0.247,0.579,0.362,0.902c0.015,0.042,0.031,0.084,0.045,0.126
	c0.257,0.737,0.482,1.547,0.647,2.26c0.05,0.226,0.101,0.451,0.144,0.683c-0.037,0.297-0.065,0.725-0.077,1.185
	c-0.271-0.384-0.607-0.85-1.028-1.419c-0.476-0.665-1.022-1.407-1.655-2.231c-0.719-0.991-1.449-1.851-2.139-2.541
	c-0.106-0.106-0.21-0.211-0.317-0.312C68.892,24.313,68.877,24.297,68.863,24.284 M61.549,24.639
	c-4.789-2.443-9.542-1.273-12.669,0.126c2.619-1.972,5.922-3.125,8.396-3.27c1.751-0.137,6.616-0.517,10.939,3.629
	c0.055,0.051,0.109,0.105,0.164,0.159c0.594,0.586,1.176,1.258,1.737,2.031c0.003,0.004,0.006,0.007,0.009,0.011
	c0.848,1.103,1.516,1.992,2.05,2.715c0.665,0.929,1.181,1.69,1.548,2.231c0.164,0.242,0.294,0.434,0.406,0.594
	c0.063,0.9,0.377,1.961,0.836,2.972c0.114,0.262,0.234,0.502,0.356,0.73c0.006,0.01,0.011,0.023,0.017,0.034
	c-0.667-0.266-1.365-0.43-2.083-0.458C72.022,34.043,68.028,27.946,61.549,24.639 M58.357,30.954
	c-0.269-0.017-0.538-0.026-0.806-0.026c-3.812,0-7.513,1.722-11.034,5.132c0.472-1.155,1.037-2.15,1.686-2.972
	c1.405-1.779,5.64-4.535,11.01-4.332c3.614,0.139,8.822,1.649,13.182,8.026c-0.001,0.015-0.002,0.026-0.004,0.04
	c-0.17,1.188-0.148,2.236-0.064,3.091C69.768,36.729,64.56,31.35,58.357,30.954L58.357,30.954z M59.079,36.797
	c-2.713,0.042-5.054,1.516-6.763,3.047c1.224-2.122,3.588-4.48,8.083-4.736c0.008-0.001,0.018-0.001,0.027-0.002
	c4.684-0.517,9.43,3.406,12.073,6.76c0.075,0.105,0.148,0.205,0.21,0.294c0.003,0.004,0.008,0.005,0.011,0.01
	c0.005,0.006,0.007,0.012,0.012,0.018c0.699,0.872,1.216,1.786,1.513,2.406c-0.766-0.043-1.578-0.089-2.303-0.144
	c-0.34-0.028-0.672-0.06-0.999-0.093C69.22,39.305,63.722,36.748,59.079,36.797 M56.276,43.359c0.836-1.697,2.175-2.76,3.944-3.111
	c3.101-0.618,6.8,1.004,9.181,3.922c-0.941-0.125-1.9-0.265-2.76-0.418c-0.009-0.001-0.018-0.003-0.027-0.005
	c-0.274-0.049-0.539-0.099-0.789-0.151c-0.007-0.002-0.013-0.003-0.02-0.004c-0.122-0.026-1.006-0.221-1.31-0.288
	C63.774,42.812,60.056,40.548,56.276,43.359 M59.247,47.977c1.033,0.005,1.946,0.266,2.827,0.518
	c0.247,0.071,0.492,0.14,0.733,0.203c1.243,0.34,2.394,0.723,3.508,1.092l0.089,0.03c2.826,0.941,5.495,1.83,9.105,1.83
	c0.609,0,1.224-0.024,1.8-0.07c0.494-0.009,5.022-0.14,11.907-1.955l-0.001-0.006c0.005-0.002,0.011,0.001,0.017-0.001
	c0.059-0.018,0.117-0.034,0.196-0.052l0.152-0.041c1.174-0.325,4.295-1.189,6.735-1.189c0.435,0,0.836,0.03,1.188,0.088
	c3.476,0.579,7.881,2.597,11.613,8.336c-0.333-0.019-0.694-0.006-1.106,0.049c-0.07-0.205-0.169-0.395-0.294-0.568
	c-0.404-0.556-1.039-0.888-1.889-0.986c-0.914-0.105-2.666-0.231-4.131,0.11c-1.004,0.234-2.153,1.094-2.806,1.641
	c-0.864-0.518-2.459-1.381-3.896-1.649c-1.961-0.366-2.929-0.037-4.548,1.763c-1.656-3.507-4.195-4.228-5.617-4.335
	c-1.481-0.129-4.612,1.396-6.225,2.243c-1.15-1.292-2.242-2.154-3.251-2.565c-2.189-0.893-4.768,0.691-5.864,1.49
	c-0.272-0.172-0.524-0.312-0.775-0.432c-0.058-0.028-0.129-0.065-0.213-0.109c-0.653-0.339-1.869-0.971-3.063-0.839
	c-1.746,0.195-3.811,1.534-5.278,2.526c-0.529-0.813-1.641-2.488-2.544-3.634c-1.276-1.62-4.162-0.386-6.073,0.712
	c-0.002-0.089-0.016-0.175-0.025-0.262c0.081-0.656-0.188-1.335-0.778-1.95C53.348,48.706,56.229,48.017,59.247,47.977
	 M42.389,57.391c1.928-2.95,4.432-5.283,7.313-6.889c0.263,0.285,0.638,0.785,0.75,1.388c-0.016,0.071-0.034,0.142-0.072,0.214
	l-0.523,1.006l0.422,0.105l0.488,0.152c0.067,0.021,0.164,0.039,0.26,0.053c0.007,0.001,0.011,0.002,0.017,0.003
	c1.621,0.612,1.888,0.888,1.858,1.284L52.839,55.5l0.78,0.152c0.288,0.056,0.96,0.224,0.992,0.586
	c0.031,0.319-0.253,0.736-0.342,0.803l-1.781,0.695l1.678,0.918c0.746,0.407,0.914,0.726,0.915,0.819
	c0.002,0.086-0.133,0.262-0.388,0.417c-0.335,0.204-0.696,0.225-0.713,0.241l-0.977-0.545l-0.313,1.071
	c-0.099,0.342-0.289,0.777-0.628,0.912c-0.364,0.141-0.872-0.045-1.065-0.159l-0.661-0.386l-0.481,0.587
	c-0.377,0.457-0.936,0.697-1.528,0.661c-0.422-0.032-0.768-0.207-0.93-0.47l-0.415-0.672l-0.711,0.328
	c-1.606,0.723-2.626,0.481-2.801,0.312l-0.589-0.555l-0.608,0.527c-0.389,0.334-1.346,0.369-1.954,0.312
	C40.53,61.106,41.838,58.229,42.389,57.391 M40.102,63.083c0.748,0.089,1.997,0.088,2.751-0.461c0.413,0.31,1.166,0.465,2.135,0.315
	c0.541,2.243-0.597,3.398-0.649,3.448l0.728,0.761c0.07-0.067,1.632-1.601,0.941-4.46c0.186-0.063,0.376-0.132,0.572-0.217
	c0.265,0.362,0.676,0.629,1.163,0.763c-0.091,3.051,0.956,3.963,1.081,4.061l0.659-0.82c-0.007-0.006-0.657-0.615-0.694-2.681
	l13.634,4.281l0.038-0.122l0.027,0.016c0.133,0.078,0.49,0.165,0.672,0.165c0.005,0,0.01,0,0.015-0.001l0.076-0.007
	c0.123-0.022,0.207-0.079,0.317-0.153c0.027-0.019,0.046-0.031,0.06-0.04c0.052,0.007,0.11,0.007,0.178,0.011l0.168-0.004
	c0.131-0.001,0.529-0.005,0.703-0.356c0.211-0.377-0.011-0.788-0.317-1.019c-0.142-0.101-0.175-0.228-0.232-0.576
	c-0.114-0.708-0.126-1.291,0.187-1.833c0.074-0.131,0.155-0.29,0.192-0.468c0.053-0.244,0.1-0.255,0.173-0.273
	c0.197-0.051,0.382-0.217,0.457-0.388c0.262,0.158,0.545,0.252,0.851,0.345c0.312,0.096,0.608,0.186,0.81,0.364
	c0.463,0.411,1.032,0.414,1.484,0.01c0.025-0.022,0.076-0.042,0.133-0.061c0.001,0.067,0.005,0.124,0.011,0.161
	c0.058,0.309,0.015,1.602-0.05,1.963l-0.016,0.097L68.378,66c0.084,0.435,0.216,0.894,0.556,1.039c0,0.243,0.004,0.481,0.008,0.716
	l0.001,0.122c0.006,0.267,0.012,0.538,0,0.856c-0.023,0.259,0.061,0.422,0.178,0.529H39.243
	C39.277,67.933,39.673,65.242,40.102,63.083 M80.446,112.952c-0.157,0.012-0.334,0.018-0.529,0.018
	c-1.932,0-5.304-0.579-8.141-1.852c-1.202-0.537-2.364-1.201-3.453-1.974l-0.371-0.263c-10.422-7.385-24.267-17.208-27.865-33.137
	h33.068c-0.155,3.725-0.566,24.87,9.212,36.822C81.702,112.794,81.048,112.909,80.446,112.952 M83.364,112.132
	c-9.788-11.679-9.307-32.891-9.156-36.388h4.622c-0.217,3.301-1.031,22.13,7.387,33.607
	C85.388,110.714,84.388,111.587,83.364,112.132 M98.07,94.42c-4.892,4.383-9.513,8.523-10.753,12.502
	c-0.166,0.506-0.352,0.963-0.55,1.391c-7.959-11.324-7.083-29.63-6.883-32.569h33.287C110.908,82.918,104.208,88.922,98.07,94.42
	 M33.699,54.255c0.052,0.244,0.168,0.472,0.401,0.63c0.307,0.21,0.641,0.225,0.96,0.145c0.001,0.033,0.003,0.066,0.006,0.099
	c0.037,0.358,0.212,0.667,0.508,0.893c0.108,0.082,0.259,0.162,0.506,0.187c-0.884,0.652-1.942,1.167-2.383,0.842
	c-0.065-0.048-0.128-0.12-0.183-0.207C32.944,55.911,33,55.079,33.699,54.255 M29.649,92.742c0.247-0.032,0.483-0.132,0.659-0.351
	c0.233-0.29,0.273-0.622,0.218-0.945c0.033,0.001,0.066,0.002,0.1,0.001c0.359-0.009,0.681-0.161,0.93-0.438
	c0.089-0.101,0.181-0.246,0.224-0.49c0.581,0.932,1.015,2.027,0.656,2.442c-0.053,0.06-0.129,0.117-0.22,0.166
	C31.242,93.624,30.415,93.503,29.649,92.742 M27.258,94.216c-0.023,0.076-0.068,0.16-0.132,0.242
	c-0.682,0.854-1.483,1.086-2.496,0.711c0.212-0.132,0.386-0.32,0.455-0.592c0.093-0.361-0.008-0.679-0.192-0.951
	c0.031-0.013,0.061-0.026,0.092-0.04c0.323-0.157,0.553-0.428,0.665-0.784c0.04-0.128,0.063-0.298,0.002-0.539
	C26.567,92.873,27.414,93.689,27.258,94.216 M82.905,124.727c-1.643-1.115-3.716-2.319-5.445-3.235
	c0.559-0.271,1.074-0.51,1.556-0.723c1.607,0.841,3.248,1.817,3.889,2.208V124.727z M61.178,115.426
	c-0.291-0.104-0.597-0.205-0.909-0.301c0.039-0.241,0.084-0.484,0.111-0.719C60.601,114.75,60.86,115.089,61.178,115.426
	 M49.172,101.235c1.048,1.928,1.071,4.301,0.073,7.058c-2.28-0.364-4.258-1.684-5.47-3.664c-1.372-2.239-1.65-5.116-0.772-7.783
	C44.353,97.236,47.652,98.441,49.172,101.235 M35.99,84.706c-0.001,0.002-0.003,0.004-0.005,0.006
	c-0.008,0.015-0.016,0.03-0.025,0.046c-0.07,0.119-0.138,0.239-0.215,0.359c-0.216-0.731-0.494-1.413-0.819-2.058
	c-0.087-0.179-0.179-0.35-0.272-0.518c-0.012-0.021-0.022-0.044-0.035-0.065c-0.692-1.236-1.529-2.177-2.443-2.89
	c-0.207-0.173-0.418-0.343-0.641-0.502c0.036-0.911,0.236-1.825,0.568-2.673c0.002-0.005,0.004-0.01,0.006-0.015
	c0.069-0.176,0.147-0.346,0.227-0.515c0.032-0.067,0.066-0.135,0.1-0.203c0.183-0.36,0.389-0.704,0.621-1.023
	c0.03-0.041,0.059-0.076,0.089-0.115c0.072-0.095,0.147-0.187,0.223-0.278c0.039-0.045,0.08-0.096,0.116-0.136
	c0.071,0.064,0.15,0.137,0.231,0.213c0.038,0.036,0.078,0.076,0.119,0.115c0.033,0.032,0.066,0.064,0.099,0.097
	c1.089,1.081,2.792,3.142,3.082,5.681C37.189,81.739,36.84,83.238,35.99,84.706 M34.311,73.452c-0.172-0.157-0.322-0.287-0.445-0.39
	c-0.044-0.037-0.078-0.065-0.082-0.069c-0.001-0.001-0.001-0.001-0.002-0.001c-0.001-0.001-0.002-0.002-0.002-0.002
	c-0.026-0.022-0.057-0.032-0.086-0.047c-0.027-0.015-0.051-0.034-0.08-0.044c-0.054-0.018-0.111-0.024-0.168-0.024
	c-0.004,0-0.009-0.002-0.014-0.002c-0.128,0.004-0.253,0.053-0.351,0.147c-0.011,0.01-0.019,0.022-0.03,0.033
	c-0.061,0.059-0.224,0.224-0.445,0.482c-0.078,0.09-0.152,0.183-0.225,0.276c-0.048,0.061-0.093,0.114-0.143,0.18
	c-0.425-0.98-0.969-1.811-1.587-2.525c-0.059-0.071-0.12-0.14-0.18-0.209c-0.083-0.091-0.165-0.182-0.25-0.269
	c-0.113-0.122-0.222-0.249-0.342-0.366c0.236-0.775,0.573-1.526,1.019-2.24c0.034-0.055,0.069-0.109,0.104-0.164
	c0.143-0.218,0.294-0.434,0.455-0.645c0.031-0.042,0.06-0.083,0.092-0.125c0.584-0.699,1.237-1.48,1.977-2.173
	c0.066,0.106,0.138,0.229,0.212,0.358C34.657,67.248,36.04,70.519,34.311,73.452 M32.847,61.262
	c0.489,0.717,0.845,1.641,1.061,2.761c-0.001-0.001-0.002-0.001-0.003-0.001c-0.066-0.042-0.14-0.072-0.22-0.08
	c-0.15-0.018-0.299,0.031-0.411,0.132c-0.06,0.054-0.113,0.108-0.172,0.163l-0.054,0.05c-0.011,0.01-0.02,0.021-0.03,0.029
	c-0.282,0.262-0.552,0.524-0.809,0.785c-0.026,0.028-0.053,0.055-0.079,0.084c-0.266,0.274-0.518,0.548-0.754,0.822
	c-0.063-0.202-0.138-0.401-0.221-0.599c-0.049-0.121-0.106-0.239-0.162-0.357c-0.045-0.093-0.092-0.185-0.142-0.277
	c-0.166-0.314-0.349-0.614-0.551-0.898C31.196,62.619,32.051,61.743,32.847,61.262 M28.696,51.809
	c0.187,0.165,0.415,0.276,0.697,0.268c0.372-0.013,0.649-0.201,0.858-0.454c0.02,0.026,0.041,0.051,0.064,0.075
	c0.242,0.267,0.567,0.41,0.94,0.416c0.134,0,0.304-0.023,0.518-0.15c-0.325,1.049-0.868,2.094-1.416,2.094
	c-0.08,0-0.173-0.021-0.27-0.058C29.074,53.588,28.624,52.885,28.696,51.809 M23.881,57.429c0.264-0.006,0.497-0.065,0.7-0.258
	c0.271-0.256,0.356-0.579,0.345-0.907c0.032,0.006,0.065,0.011,0.099,0.015c0.357,0.041,0.696-0.066,0.98-0.308
	c0.103-0.087,0.214-0.218,0.29-0.455c0.449,1.003,0.73,2.146,0.317,2.508c-0.06,0.053-0.144,0.099-0.241,0.135
	C25.339,58.519,24.537,58.287,23.881,57.429 M25.243,67.996c-1.651-1.661-1.952-4.001-0.935-7.326
	c1.036,0.441,3.44,1.626,4.967,3.599c0.155,0.202,0.296,0.406,0.425,0.613c0.02,0.032,0.04,0.063,0.06,0.095
	c0.282,0.47,0.497,0.954,0.642,1.447c0.016,0.057,0.026,0.118,0.042,0.177c0.037,0.146,0.067,0.293,0.092,0.441
	c-0.066,0.09-0.125,0.182-0.188,0.273c-0.051,0.073-0.103,0.146-0.152,0.218c-0.099,0.149-0.193,0.3-0.285,0.452
	c-0.4,0.653-0.718,1.297-0.932,1.923c-0.018-0.013-0.037-0.024-0.055-0.037c-0.233-0.17-0.471-0.328-0.711-0.477
	c-0.011-0.007-0.02-0.014-0.031-0.021c-0.836-0.517-1.698-0.913-2.53-1.216C25.515,68.104,25.386,68.048,25.243,67.996
	 M23.842,74.269c-1.502-1.631-2.292-3.662-2.353-6.048c0.904,0.14,2.479,0.404,4.143,1.061c0.084,0.035,0.178,0.067,0.26,0.102
	c0.068,0.029,0.137,0.064,0.207,0.094c0.269,0.12,0.527,0.244,0.775,0.372c0.088,0.046,0.176,0.093,0.264,0.142
	c0.18,0.098,0.347,0.202,0.515,0.305c0.14,0.088,0.282,0.172,0.42,0.267c0.036,0.025,0.068,0.051,0.103,0.076
	c0.442,0.314,0.871,0.667,1.27,1.07c0.023,0.024,0.046,0.047,0.068,0.071c0.13,0.133,0.252,0.278,0.375,0.422
	c0.705,0.864,1.255,1.837,1.647,2.906c-0.029,0.054-0.051,0.113-0.079,0.169c-0.087,0.175-0.17,0.349-0.244,0.521
	c-0.028,0.066-0.054,0.131-0.08,0.198c-0.219,0.538-0.384,1.064-0.484,1.582C28.022,77.3,25.506,76.084,23.842,74.269L23.842,74.269
	z M23.011,78.647c2.716-0.274,5.907-0.183,8.386,1.661c0.002,0.002,0.005,0.004,0.007,0.006c0.076,0.056,0.145,0.124,0.218,0.183
	c0.949,0.82,1.723,1.794,2.309,2.919c0.352,0.705,0.657,1.505,0.9,2.414C28.802,85.929,25.231,84.725,23.011,78.647 M41.315,98.479
	c-3.063-1.677-5.08-3.822-5.704-6.078c-0.603-2.168-0.246-4.489,1.033-6.737c1.127,0.553,3.756,2.098,4.874,4.917
	C42.545,93.163,42.477,95.818,41.315,98.479 M27.896,101.025c0.156-0.204,0.255-0.45,0.218-0.737
	c-0.046-0.369-0.258-0.629-0.53-0.813c0.025-0.023,0.048-0.047,0.07-0.071c0.244-0.266,0.357-0.602,0.33-0.974
	c-0.01-0.134-0.051-0.3-0.196-0.501c1.074,0.231,2.164,0.689,2.218,1.279c0.021,0.234,0.034,0.398,0.041,0.513
	c0.001,0.033-0.002,0.067,0.006,0.099c0.004,0.097,0.004,0.135,0.006,0.135C29.796,100.82,29.267,101.103,27.896,101.025
	 M30.842,103.556c0.582-0.164,1.372-0.354,2.282-0.491c3.62-0.544,8.451-0.214,11.32,4.269c-0.938,0.242-1.83,0.427-2.66,0.552
	C36.213,108.726,33.379,106.882,30.842,103.556 M47,113.15c-4.27,1.209-6.723-0.405-9.319-2.114l-0.2-0.131
	c-0.098-0.064-0.197-0.128-0.295-0.193c0.818-0.448,2.094-1.058,3.62-1.491c2.845-0.804,6.927-1.075,10.557,1.999
	C49.798,112.125,48.333,112.773,47,113.15 M50.08,109.06c0.117-0.299,0.212-0.591,0.308-0.882c0.103,0.452,0.234,0.887,0.391,1.306
	C50.547,109.333,50.314,109.189,50.08,109.06 M51.103,103.339c1.598,0.417,4.874,1.573,6.798,4.347
	c1.34,1.932,1.797,4.333,1.362,7.144C52.225,112.746,50.861,109.136,51.103,103.339 M65.457,118.722
	c-0.027,0.016-0.054,0.033-0.078,0.053l-0.061,0.05c-0.025,0.019-0.046,0.041-0.067,0.064c-1.222,1.408-3.475,2.183-6.342,2.183
	c-4.003,0-8.649-1.691-10.209-3.642c1.772-1.229,4.446-1.98,7.121-1.98c2.572,0,5.055,0.904,6.685,1.662
	c0.356,0.165,1.57,0.691,1.57,0.691c0.243,0.105,0.526,0.014,0.661-0.213c0.136-0.227,0.081-0.519-0.127-0.683l-1.417-1.112
	c-2.904-2.139-2.906-4.041-2.782-7.118c6.008,1.642,6.77,7.404,6.777,7.464l0.019,0.17c0.028,0.232,0.204,0.418,0.435,0.457
	l0.154,0.027c2.052,0.389,4.883,1.315,7.18,2.199c-0.572,0.231-1.114,0.458-1.622,0.679
	C70.303,118.267,67.014,117.863,65.457,118.722 M114.769,102.588c1.553,0,3.573,0.5,4.148,1.911c0.462,1.127-0.057,2.715-1.47,4.571
	c0.192-1.563-0.03-2.832-0.66-3.729c-0.835-1.189-2.331-1.591-4.006-1.075c-1.312,0.405-2.859,1.177-4.498,1.995l-0.083,0.041
	c-0.6,0.303-1.219,0.61-1.84,0.911l-2.167,1.042l2.375,0.379c1.5,0.241,3.372,0.787,3.761,2.025c0.272,0.858-0.17,1.911-0.695,2.766
	c-0.086-0.481-0.261-0.971-0.574-1.421c-1.261-1.804-4.121-2.121-8.503-0.948l-3.117,0.843l3.164,0.623
	c2.439,0.487,3.872,1.283,4.142,2.304c0.198,0.752-0.21,1.626-0.75,2.387c-0.028-0.46-0.134-0.937-0.363-1.396
	c-0.945-1.889-3.486-2.594-7.552-2.097l-2.116,0.263l1.813,1.125c1.129,0.698,2.447,1.752,2.315,2.807
	c-0.083,0.678-0.746,1.406-1.871,2.084c0.168-0.533,0.242-1.146,0.059-1.756c-0.605-1.99-3.373-2.518-8.223-1.564
	c-4.693,0.917-9.028,2.759-12.43,4.547l-0.5,0.251l0.016,0.008c-2.305,1.239-4.15,2.429-5.322,3.237v-2.133
	c0.783-0.475,2.048-1.114,3.689-1.833c0.024-0.007,0.05-0.005,0.073-0.016c0.817-0.367,1.792-0.754,2.734-1.129l0.298-0.118
	c0.027-0.011,0.048-0.028,0.073-0.043c1.315-0.508,2.758-1.03,4.31-1.547c4.334-1.445,5.17-1.825,7.206-2.75
	c0.776-0.353,1.725-0.786,3.136-1.393c2.804-1.211,3.159-2.597,2.964-3.548c-0.15-0.712-0.659-1.301-1.274-1.7
	c1.305-0.346,2.255,0.265,2.78,1.805l0.368,1.124l0.858-0.811c0.977-0.915,1.439-1.981,1.335-3.081
	c-0.062-0.645-0.314-1.264-0.742-1.83c0.803,0.14,1.321,0.681,2.191,2.398l0.804,1.588l0.578-1.682
	c0.647-1.87,0.581-3.368-0.193-4.45c-0.649-0.913-1.669-1.362-2.692-1.565c0.578-0.228,1.217-0.397,1.838-0.397
	c1.558,0,2.552,1.115,3.04,3.41l0.443,2.088l0.962-1.9c1.642-3.213,2.028-5.449,1.178-6.837c-0.556-0.908-1.565-1.369-2.996-1.369
	c-0.301,0-0.606,0.021-0.903,0.055c0.857-0.57,1.822-0.91,2.689-0.91c0.737,0,1.36,0.256,1.802,0.739
	c0.742,0.815,1.039,2.295,0.858,4.282l-0.444,4.861l1.885-4.501c1.729-4.09,2.076-6.819,1.065-8.34
	c-0.379-0.573-1.144-1.254-2.639-1.254c-0.191,0-0.381,0.011-0.569,0.03c0.791-0.47,1.794-0.811,2.744-0.811
	c0.577,0,1.373,0.14,1.891,0.807c0.756,0.966,0.829,2.881,0.206,5.389l-1.354,5.411l-1.743,0.921l1.589-0.305l-0.135,0.537
	l0.285-0.566l3.206-0.615C113.718,102.636,114.24,102.588,114.769,102.588 M124.323,79.895c1.766-1.239,4.107-2.459,5.241-1.233
	c0.457,0.494,0.69,1.262,0.803,2.011c-0.956-0.958-1.971-1.442-3.034-1.442c-3.715,0-6.364,5.945-6.865,7.155l-1.047,2.632
	l2.216-1.762c2.172-1.725,4.024-2.6,5.507-2.6c2.215,0,2.881,2.012,2.962,2.277c0.195,0.514,0.2,1.042,0.122,1.514
	c-0.509-1.02-1.486-2.167-3.343-2.507c-3.481-0.384-7.192,3.815-7.88,4.98l-1.216,2.078l2.185-1.017
	c3.363-1.565,5.706-1.484,6.282-0.596c0.224,0.343,0.277,0.859,0.166,1.501c-0.805-1.05-1.799-1.303-2.571-1.303
	c-3.213,0-6.918,4.334-7.073,4.516l-1.32,1.544l2.007-0.309c4.629-0.711,7.537-0.235,8.189,1.341
	c0.417,1.011-0.032,2.552-0.834,4.037c0.022-1.201-0.232-2.161-0.761-2.868c-0.651-0.872-1.665-1.306-3.037-1.306
	c-2.008,0-4.782,0.931-8.298,2.791l-2.312,1.223l2.358-4.679c2.326-4.623,2.954-7.688,1.919-9.372
	c-0.372-0.604-1.151-1.324-2.74-1.324c-0.111,0-0.223,0.003-0.339,0.01c0.694-0.525,1.367-0.79,2.01-0.79
	c1.497,0,2.485,1.457,2.783,2.437l0.582,1.904l0.825-1.813c0.463-1.022,0.6-4.087-0.239-6.564c-0.404-1.192-1.473-1.747-2.953-1.535
	c1.379-1.101,2.611-0.922,3.698,0.688l0.855,1.26l0.479-1.441c1.438-4.234,0.307-6.459-0.838-7.925
	c-0.358-0.457-0.853-0.765-1.457-0.911c0.701-0.477,1.338-0.725,1.879-0.725c1.322,0,2.066,1.586,2.457,2.919l1.44,4.84
	l-0.038,1.229L124.323,79.895z M133.464,65.926c-0.699-0.846-1.59-1.322-2.536-1.322c-2.259,0-4.16,2.571-5.086,6.875l-0.377,1.706
	l1.497-0.9c2.368-1.424,3.991-1.648,4.825-0.667c0.545,0.646,0.753,1.707,0.818,2.686c-1.114-1.456-2.389-1.81-3.366-1.81
	c-2.754,0-5.556,2.887-6.032,6.031l-0.042-4.056c-0.034-4.931-0.597-9.973-4.519-9.973c-0.098,0-0.198,0.003-0.299,0.01
	c0.56-0.528,1.084-0.795,1.564-0.795c1.03,0,2.129,1.175,3.201,2.32l2.262,2.411l-0.995-3.152c-1.256-3.992-1.668-5.255-3.11-8.3
	c0.692,1.113,1.343,2.487,2.264,4.431l1.295,2.717l0.188-2.88c0.183-2.733,0.013-6.004-0.507-9.751
	c1.035,2.021,1.182,3.557,1.524,7.152c0.087,0.932,0.189,1.996,0.32,3.232l0.514,4.809l0.973-4.739
	c0.673-3.304,1.352-4.576,2.586-5.61c-0.402,0.928-0.785,2.082-1.343,3.768c-0.24,0.723-0.517,1.551-0.843,2.511l-0.544,1.614
	l1.56-0.685c1.928-0.847,3.193-0.894,3.763-0.14C133.471,64.021,133.527,65.034,133.464,65.926"/>
<path fill="#FFFFFF" d="M60.045,152.731h33.709v-5.135H60.045V152.731z M61.096,148.647h31.606v3.032H61.096V148.647z"/>
<path fill="#FFFFFF" d="M85.983,87.297l4.959,7.734l4.949-7.734l-4.949-7.476L85.983,87.297z M90.941,93.081l-3.702-5.774
	l3.702-5.581l3.695,5.581L90.941,93.081z"/>
<path fill="#FFFFFF" d="M70.89,104.543l-4.902-3.086l-3.981,1.864l2.396-4.468c-1.011-0.281-4.051-1.267-6.802-3.567
	c-4.424-3.703-6.06-8.856-4.864-15.318l0.085-0.463l0.458,0.11c1.617,0.39,15.637,4.163,14.103,17.397
	c1.085-0.132,3.394-0.418,3.999-0.53l1.608-0.298l-3.798,3.303L70.89,104.543z M66.05,100.443l3.198,2.012l-1.091-3.251l1.869-1.625
	c-1.337,0.176-3.002,0.376-3.106,0.388l-0.572,0.069l0.109-0.798c1.6-11.89-10.1-15.857-12.925-16.636
	c-0.97,5.901,0.591,10.609,4.642,13.999c3.004,2.513,6.359,3.372,6.732,3.462l0.833,0.186l-1.675,3.123L66.05,100.443z
	 M64.46,95.782l-0.899-0.205c-3.007-0.687-7.664-5.182-8.219-11.51l-0.097-1.015l0.963,0.342c6.831,2.445,7.984,9.991,8.146,11.479
	L64.46,95.782z M56.271,84.372c0.639,5.475,4.469,9.389,7.152,10.242C63.151,92.68,61.865,86.605,56.271,84.372"/>
</svg>
